<svg width="1440" height="1024" viewBox="0 0 1440 1024" fill="none" xmlns="http://www.w3.org/2000/svg">
<g opacity="0.99">
<path d="M136 50.9999L135.845 48.034L146.72 47.464L146.875 50.43L136 50.9999Z" fill="#FFD76F"/>
<path d="M182 61.9999L179.315 62.2821L178.28 52.4364L180.965 52.1541L182 61.9999Z" fill="#FFD76F"/>
<path d="M302 16.9999L304.651 18.1252L300.525 27.8458L297.874 26.7204L302 16.9999Z" fill="#FFD76F"/>
<path d="M437 37.9999V34.6399H449.32V37.9999H437Z" fill="#FFD76F"/>
<path d="M654 42.9999L656.566 41.6924L661.36 51.1015L658.794 52.4089L654 42.9999Z" fill="#FFD76F"/>
<path d="M824 45.9999L826.334 45.5884L827.843 54.1463L825.509 54.5579L824 45.9999Z" fill="#FFD76F"/>
<path d="M1005 49.9999L1004.34 47.9742L1011.77 45.5607L1012.43 47.5865L1005 49.9999Z" fill="#FFD76F"/>
<path d="M1110 73.9999L1111.53 72.3544L1117.57 77.9809L1116.03 79.6264L1110 73.9999Z" fill="#FFD76F"/>
<path d="M1152 72.9999L1155.51 73.1836L1154.83 86.036L1151.33 85.8523L1152 72.9999Z" fill="#FFD76F"/>
<path d="M1306 35.9999L1308.15 35.4628L1310.12 43.3611L1307.97 43.8981L1306 35.9999Z" fill="#FFD76F"/>
<path d="M-1.52588e-05 196.4L3.17046 195.898L5.0117 207.523L1.84122 208.025L-1.52588e-05 196.4Z" fill="#FFD76F"/>
<path d="M176 176.4L178.221 177.037L175.886 185.178L173.665 184.542L176 176.4Z" fill="#FFD76F"/>
<path d="M348 121.4L347.916 123.798L339.122 123.491L339.205 121.093L348 121.4Z" fill="#FFD76F"/>
<path d="M537 121.4L538.569 119.24L546.49 124.994L544.92 127.154L537 121.4Z" fill="#FFD76F"/>
<path d="M704 190.4L706.252 190.756L704.944 199.014L702.692 198.657L704 190.4Z" fill="#FFD76F"/>
<path d="M755 193.4L754.561 191.5L761.528 189.891L761.967 191.791L755 193.4Z" fill="#FFD76F"/>
<path d="M868 182.4L865.091 181.043L870.065 170.376L872.974 171.733L868 182.4Z" fill="#FFD76F"/>
<path d="M1080 116.4L1078.04 115.125L1082.71 107.93L1084.67 109.204L1080 116.4Z" fill="#FFD76F"/>
<path d="M1292 150.4L1294.93 151.467L1291.02 162.217L1288.09 161.15L1292 150.4Z" fill="#FFD76F"/>
<path d="M1423 168.4L1423.65 165.564L1434.05 167.965L1433.4 170.8L1423 168.4Z" fill="#FFD76F"/>
<path d="M41 292.8L44.1978 292.52L45.2236 304.245L42.0258 304.525L41 292.8Z" fill="#FFD76F"/>
<path d="M185 278.8L187.442 277.39L192.612 286.345L190.17 287.755L185 278.8Z" fill="#FFD76F"/>
<path d="M351 250.8L349.517 253.981L337.852 248.542L339.336 245.361L351 250.8Z" fill="#FFD76F"/>
<path d="M520 214.8L516.665 214.39L518.167 202.162L521.501 202.572L520 214.8Z" fill="#FFD76F"/>
<path d="M633 301.8L630.968 302.195L629.52 294.744L631.552 294.349L633 301.8Z" fill="#FFD76F"/>
<path d="M749 271.8L747.994 268.878L758.707 265.19L759.713 268.111L749 271.8Z" fill="#FFD76F"/>
<path d="M892 238.8L894.553 239.581L891.691 248.943L889.138 248.162L892 238.8Z" fill="#FFD76F"/>
<path d="M1010 234.8L1011.35 236.203L1006.21 241.169L1004.86 239.767L1010 234.8Z" fill="#FFD76F"/>
<path d="M1212 220.8L1212.34 217.548L1224.27 218.801L1223.92 222.053L1212 220.8Z" fill="#FFD76F"/>
<path d="M1396 244.8L1394.93 242.157L1404.62 238.243L1405.69 240.885L1396 244.8Z" fill="#FFD76F"/>
<path d="M52 372.2L54.361 371.993L55.1184 380.65L52.7574 380.857L52 372.2Z" fill="#FFD76F"/>
<path d="M263 313.2L263.274 315.433L255.086 316.439L254.811 314.205L263 313.2Z" fill="#FFD76F"/>
<path d="M431 310.2L432.051 311.948L425.639 315.801L424.588 314.052L431 310.2Z" fill="#FFD76F"/>
<path d="M446 384.2L446.317 386.458L438.039 387.621L437.721 385.363L446 384.2Z" fill="#FFD76F"/>
<path d="M673 393.2L670.969 392.379L673.978 384.934L676.008 385.755L673 393.2Z" fill="#FFD76F"/>
<path d="M829 393.2L830.169 396.093L819.562 400.378L818.393 397.485L829 393.2Z" fill="#FFD76F"/>
<path d="M962 320.2L964.813 322.398L956.754 332.713L953.941 330.515L962 320.2Z" fill="#FFD76F"/>
<path d="M1052 348.2L1049.46 349.123L1046.08 339.82L1048.61 338.897L1052 348.2Z" fill="#FFD76F"/>
<path d="M1215 341.2L1215.69 343.311L1207.94 345.827L1207.26 343.715L1215 341.2Z" fill="#FFD76F"/>
<path d="M1437 388.2L1436.18 384.911L1448.24 381.903L1449.06 385.193L1437 388.2Z" fill="#FFD76F"/>
<path d="M22 449.6L20.9825 447.972L26.9528 444.241L27.9702 445.869L22 449.6Z" fill="#FFD76F"/>
<path d="M267 462.6L264.506 461.49L268.577 452.345L271.071 453.455L267 462.6Z" fill="#FFD76F"/>
<path d="M318 437.6L320.13 438.83L315.62 446.642L313.49 445.412L318 437.6Z" fill="#FFD76F"/>
<path d="M446 510.6L444.461 507.445L456.029 501.803L457.567 504.958L446 510.6Z" fill="#FFD76F"/>
<path d="M713 409.6L712.565 411.838L704.359 410.243L704.794 408.005L713 409.6Z" fill="#FFD76F"/>
<path d="M781 461.6L778.363 461.182L779.894 451.513L782.531 451.931L781 461.6Z" fill="#FFD76F"/>
<path d="M893 415.6L893.852 413.26L902.431 416.383L901.579 418.723L893 415.6Z" fill="#FFD76F"/>
<path d="M1071 433.6L1071.73 431.346L1080 434.031L1079.26 436.285L1071 433.6Z" fill="#FFD76F"/>
<path d="M1206 461.6L1209.21 463.165L1203.47 474.93L1200.26 473.365L1206 461.6Z" fill="#FFD76F"/>
<path d="M1362 433.6L1362.6 431.369L1370.78 433.561L1370.18 435.792L1362 433.6Z" fill="#FFD76F"/>
<path d="M1.99998 546L-0.105655 547.83L-6.81714 540.11L-4.7115 538.279L1.99998 546Z" fill="#FFD76F"/>
<path d="M241 524L242.772 521.469L252.053 527.967L250.281 530.499L241 524Z" fill="#FFD76F"/>
<path d="M332 556L329.791 553.712L338.178 545.613L340.387 547.9L332 556Z" fill="#FFD76F"/>
<path d="M492 520L490.694 517.067L501.447 512.28L502.752 515.213L492 520Z" fill="#FFD76F"/>
<path d="M690 534L687.6 533.958L687.754 525.159L690.154 525.201L690 534Z" fill="#FFD76F"/>
<path d="M777 549L776.075 546.591L784.907 543.201L785.832 545.61L777 549Z" fill="#FFD76F"/>
<path d="M969 544L970.459 546.164L962.526 551.515L961.066 549.351L969 544Z" fill="#FFD76F"/>
<path d="M1073 594L1073.73 596.001L1066.39 598.673L1065.66 596.671L1073 594Z" fill="#FFD76F"/>
<path d="M1284 571L1284.48 574.387L1272.06 576.132L1271.58 572.745L1284 571Z" fill="#FFD76F"/>
<path d="M1352 537L1351.38 539.905L1340.73 537.641L1341.35 534.736L1352 537Z" fill="#FFD76F"/>
<path d="M4.99998 642.4L5.71045 640.076L14.2311 642.681L13.5207 645.005L4.99998 642.4Z" fill="#FFD76F"/>
<path d="M208 620.4L206.95 622.218L200.282 618.368L201.332 616.55L208 620.4Z" fill="#FFD76F"/>
<path d="M351 615.4L348.762 613.587L355.407 605.381L357.646 607.193L351 615.4Z" fill="#FFD76F"/>
<path d="M456 637.4L457.907 636.386L461.625 643.379L459.718 644.393L456 637.4Z" fill="#FFD76F"/>
<path d="M645 663.4H642.63V654.71H645V663.4Z" fill="#FFD76F"/>
<path d="M785 669.4L786.437 666.698L796.343 671.965L794.907 674.667L785 669.4Z" fill="#FFD76F"/>
<path d="M1000 674.4L997.007 674.874L995.269 663.901L998.262 663.427L1000 674.4Z" fill="#FFD76F"/>
<path d="M1087 651.4L1085.55 648.776L1095.17 643.443L1096.62 646.067L1087 651.4Z" fill="#FFD76F"/>
<path d="M1292 674.4L1289.56 672.815L1295.37 663.866L1297.81 665.451L1292 674.4Z" fill="#FFD76F"/>
<path d="M1387 621.4L1386.39 624.521L1374.95 622.297L1375.55 619.175L1387 621.4Z" fill="#FFD76F"/>
<path d="M111 763.8L112.597 764.918L108.496 770.775L106.899 769.657L111 763.8Z" fill="#FFD76F"/>
<path d="M260 745.8L256.977 746.011L256.202 734.928L259.225 734.717L260 745.8Z" fill="#FFD76F"/>
<path d="M299 750.8L297.208 748.944L304.013 742.373L305.805 744.229L299 750.8Z" fill="#FFD76F"/>
<path d="M442 742.8L439.265 743.795L435.616 733.769L438.351 732.773L442 742.8Z" fill="#FFD76F"/>
<path d="M610 730.8L607.826 731.067L606.848 723.097L609.021 722.83L610 730.8Z" fill="#FFD76F"/>
<path d="M725 798.8L728.407 798.502L729.5 810.994L726.093 811.292L725 798.8Z" fill="#FFD76F"/>
<path d="M948 719.8L950.55 719.117L953.055 728.467L950.505 729.15L948 719.8Z" fill="#FFD76F"/>
<path d="M1066 739.8L1064.81 742.356L1055.44 737.986L1056.63 735.43L1066 739.8Z" fill="#FFD76F"/>
<path d="M1215 777.8L1216.6 779.707L1209.61 785.576L1208.01 783.669L1215 777.8Z" fill="#FFD76F"/>
<path d="M1310 817.8L1312.08 815.318L1321.18 822.954L1319.1 825.436L1310 817.8Z" fill="#FFD76F"/>
<path d="M30 861.2L32.1143 859.426L38.6193 867.178L36.505 868.952L30 861.2Z" fill="#FFD76F"/>
<path d="M231 890.2L231.201 893.073L220.667 893.81L220.466 890.937L231 890.2Z" fill="#FFD76F"/>
<path d="M308 862.2L310.617 860.501L316.847 870.095L314.231 871.794L308 862.2Z" fill="#FFD76F"/>
<path d="M513 918.2L514.535 921.087L503.949 926.716L502.413 923.829L513 918.2Z" fill="#FFD76F"/>
<path d="M695 888.2L697.6 887.972L698.434 897.506L695.834 897.733L695 888.2Z" fill="#FFD76F"/>
<path d="M862 898.2L859.197 899.884L853.022 889.607L855.825 887.922L862 898.2Z" fill="#FFD76F"/>
<path d="M900 849.2L897.089 848.791L898.589 838.116L901.5 838.525L900 849.2Z" fill="#FFD76F"/>
<path d="M1108 868.2L1107.62 865.103L1118.97 863.709L1119.35 866.806L1108 868.2Z" fill="#FFD76F"/>
<path d="M1220 864.2L1219.63 862.315L1226.54 860.972L1226.91 862.857L1220 864.2Z" fill="#FFD76F"/>
<path d="M1426 883.2L1423.73 885.552L1415.1 877.223L1417.38 874.871L1426 883.2Z" fill="#FFD76F"/>
<path d="M89 928.6L90.7673 927.776L93.789 934.256L92.0217 935.08L89 928.6Z" fill="#FFD76F"/>
<path d="M188 1012.6L188.864 1009.14L201.565 1012.3L200.701 1015.77L188 1012.6Z" fill="#FFD76F"/>
<path d="M312 929.6L312.912 926.616L323.852 929.961L322.94 932.945L312 929.6Z" fill="#FFD76F"/>
<path d="M448 1023.6L446.27 1024.2L444.085 1017.85L445.815 1017.26L448 1023.6Z" fill="#FFD76F"/>
<path d="M684 1018.6L685.404 1016.8L691.991 1021.95L690.588 1023.75L684 1018.6Z" fill="#FFD76F"/>
<path d="M742 925.6L743.09 923.032L752.507 927.029L751.417 929.597L742 925.6Z" fill="#FFD76F"/>
<path d="M932 923.6L933.137 922.091L938.672 926.261L937.535 927.771L932 923.6Z" fill="#FFD76F"/>
<path d="M1112 994.6L1108.93 993.101L1114.42 981.83L1117.5 983.329L1112 994.6Z" fill="#FFD76F"/>
<path d="M1288 994.6L1284.85 995.936L1279.95 984.393L1283.1 983.057L1288 994.6Z" fill="#FFD76F"/>
<path d="M1327 964.6L1327.63 966.792L1319.59 969.096L1318.96 966.904L1327 964.6Z" fill="#FFD76F"/>
<path d="M81.8059 34.0459C83.0177 32.9159 84.916 32.9822 86.046 34.194C87.176 35.4057 87.1097 37.3041 85.8979 38.434C84.6862 39.564 82.7878 39.4977 81.6579 38.286C80.5279 37.0742 80.5942 35.1759 81.8059 34.0459Z" fill="#E099E1"/>
<path d="M227.897 -2.25008C225.745 -1.00744 222.993 -1.74488 221.75 -3.8972C220.507 -6.04951 221.245 -8.80167 223.397 -10.0443C225.549 -11.287 228.302 -10.5495 229.544 -8.3972C230.787 -6.24488 230.049 -3.49272 227.897 -2.25008Z" fill="#E099E1"/>
<path d="M348.236 96.7343C346.449 97.9856 343.986 97.5513 342.734 95.7643C341.483 93.9773 341.917 91.5143 343.704 90.263C345.491 89.0117 347.954 89.446 349.206 91.233C350.457 93.02 350.023 95.483 348.236 96.7343Z" fill="#E099E1"/>
<path d="M466.989 41.1438C464.786 40.5121 463.512 38.2139 464.144 36.0107C464.776 33.8075 467.074 32.5336 469.277 33.1653C471.48 33.7971 472.754 36.0953 472.122 38.2985C471.491 40.5017 469.192 41.7756 466.989 41.1438Z" fill="#E099E1"/>
<path d="M587.901 35.4375C585.747 34.0913 585.091 31.2534 586.438 29.0989C587.784 26.9444 590.622 26.2892 592.776 27.6355C594.931 28.9818 595.586 31.8197 594.24 33.9742C592.893 36.1286 590.055 36.7838 587.901 35.4375Z" fill="#E099E1"/>
<path d="M853.552 30.0589C856.561 29.474 859.474 31.4391 860.059 34.4479C860.644 37.4568 858.679 40.3701 855.67 40.955C852.661 41.5398 849.748 39.5748 849.163 36.5659C848.578 33.5571 850.543 30.6438 853.552 30.0589Z" fill="#E099E1"/>
<path d="M982.762 90.7465C985.102 91.991 985.991 94.8974 984.747 97.2381C983.502 99.5787 980.596 100.467 978.255 99.2227C975.914 97.9782 975.026 95.0718 976.27 92.7311C977.515 90.3905 980.421 89.5019 982.762 90.7465Z" fill="#E099E1"/>
<path d="M1017.15 57.391C1016.51 59.9364 1013.94 61.4854 1011.39 60.8508C1008.85 60.2161 1007.3 57.6382 1007.93 55.0928C1008.57 52.5473 1011.14 50.9983 1013.69 51.633C1016.23 52.2676 1017.78 54.8456 1017.15 57.391Z" fill="#E099E1"/>
<path d="M1187.12 39.1286C1188.16 37.4007 1190.4 36.8416 1192.13 37.8798C1193.86 38.918 1194.42 41.1604 1193.38 42.8884C1192.34 44.6163 1190.1 45.1754 1188.37 44.1371C1186.64 43.0989 1186.08 40.8565 1187.12 39.1286Z" fill="#E099E1"/>
<path d="M1359.66 94.2919C1361.51 94.1306 1363.13 95.494 1363.29 97.3372C1363.45 99.1803 1362.09 100.805 1360.25 100.966C1358.4 101.128 1356.78 99.7642 1356.62 97.9211C1356.46 96.078 1357.82 94.4531 1359.66 94.2919Z" fill="#E099E1"/>
<path d="M35.9396 197.176C37.0775 199.509 36.1087 202.322 33.7757 203.46C31.4426 204.598 28.6289 203.629 27.491 201.296C26.3531 198.963 27.3219 196.149 29.655 195.012C31.988 193.874 34.8017 194.843 35.9396 197.176Z" fill="#E099E1"/>
<path d="M224.881 117.811C226.604 118.689 227.289 120.796 226.411 122.518C225.533 124.241 223.426 124.926 221.704 124.048C219.981 123.17 219.296 121.063 220.174 119.34C221.052 117.618 223.159 116.933 224.881 117.811Z" fill="#E099E1"/>
<path d="M422.444 111.319C422.199 114.125 419.725 116.201 416.919 115.955C414.113 115.71 412.038 113.236 412.283 110.43C412.529 107.624 415.002 105.549 417.808 105.794C420.614 106.04 422.69 108.513 422.444 111.319Z" fill="#E099E1"/>
<path d="M445.503 117.794C443.016 116.472 442.072 113.384 443.394 110.897C444.717 108.41 447.805 107.466 450.292 108.788C452.779 110.11 453.723 113.199 452.4 115.685C451.078 118.172 447.99 119.117 445.503 117.794Z" fill="#E099E1"/>
<path d="M660.178 176.795C659.527 174.368 660.968 171.873 663.395 171.222C665.822 170.572 668.317 172.012 668.968 174.44C669.618 176.867 668.177 179.362 665.75 180.012C663.323 180.663 660.828 179.222 660.178 176.795Z" fill="#E099E1"/>
<path d="M793.032 137.132C790.253 138.937 786.537 138.147 784.732 135.368C782.927 132.589 783.717 128.873 786.496 127.068C789.275 125.263 792.991 126.053 794.796 128.832C796.601 131.611 795.811 135.327 793.032 137.132Z" fill="#E099E1"/>
<path d="M939.151 135.485C941.829 135.438 944.038 137.571 944.085 140.249C944.131 142.927 941.998 145.136 939.32 145.183C936.642 145.23 934.433 143.097 934.386 140.418C934.339 137.74 936.473 135.531 939.151 135.485Z" fill="#E099E1"/>
<path d="M1026.12 180.181C1025.5 178.645 1026.25 176.897 1027.78 176.276C1029.32 175.655 1031.07 176.398 1031.69 177.934C1032.31 179.47 1031.57 181.219 1030.03 181.839C1028.49 182.46 1026.74 181.718 1026.12 180.181Z" fill="#E099E1"/>
<path d="M1282 172.1C1284.21 171.161 1286.76 172.193 1287.7 174.404C1288.64 176.616 1287.61 179.169 1285.4 180.108C1283.18 181.047 1280.63 180.015 1279.69 177.803C1278.75 175.592 1279.78 173.038 1282 172.1Z" fill="#E099E1"/>
<path d="M1382.9 133.851C1382.96 136.915 1380.52 139.443 1377.45 139.497C1374.39 139.55 1371.86 137.109 1371.8 134.044C1371.75 130.98 1374.19 128.452 1377.26 128.398C1380.32 128.345 1382.85 130.786 1382.9 133.851Z" fill="#E099E1"/>
<path d="M27.9794 295.691C25.7816 297.408 22.608 297.018 20.8909 294.82C19.1738 292.623 19.5635 289.449 21.7613 287.732C23.959 286.015 27.1327 286.404 28.8498 288.602C30.5669 290.8 30.1772 293.974 27.9794 295.691Z" fill="#E099E1"/>
<path d="M281.651 234.416C283.501 232.971 286.171 233.299 287.617 235.149C289.062 236.999 288.734 239.669 286.884 241.115C285.034 242.56 282.364 242.232 280.918 240.382C279.473 238.532 279.801 235.862 281.651 234.416Z" fill="#E099E1"/>
<path d="M326.03 235.278C327.118 236.671 326.871 238.682 325.478 239.77C324.086 240.858 322.075 240.611 320.987 239.219C319.899 237.826 320.145 235.815 321.538 234.727C322.931 233.639 324.942 233.886 326.03 235.278Z" fill="#E099E1"/>
<path d="M471.669 289.069C469.09 287.264 468.464 283.709 470.269 281.131C472.075 278.552 475.629 277.925 478.208 279.731C480.787 281.537 481.413 285.091 479.608 287.669C477.802 290.248 474.248 290.875 471.669 289.069Z" fill="#E099E1"/>
<path d="M626.047 285.147C625.469 287.164 623.365 288.331 621.347 287.752C619.33 287.174 618.163 285.07 618.742 283.052C619.32 281.035 621.425 279.868 623.442 280.447C625.459 281.025 626.626 283.13 626.047 285.147Z" fill="#E099E1"/>
<path d="M765.424 278.912C763.533 278.298 762.498 276.267 763.112 274.376C763.727 272.485 765.758 271.45 767.649 272.065C769.54 272.679 770.574 274.71 769.96 276.601C769.346 278.492 767.315 279.527 765.424 278.912Z" fill="#E099E1"/>
<path d="M901.724 254.651C901.324 257.494 898.695 259.476 895.851 259.076C893.007 258.677 891.025 256.047 891.425 253.203C891.825 250.359 894.454 248.378 897.298 248.777C900.142 249.177 902.123 251.807 901.724 254.651Z" fill="#E099E1"/>
<path d="M1034.06 221.264C1036.23 219.903 1039.1 220.565 1040.46 222.743C1041.82 224.921 1041.16 227.79 1038.98 229.151C1036.81 230.512 1033.94 229.849 1032.58 227.672C1031.22 225.494 1031.88 222.625 1034.06 221.264Z" fill="#E099E1"/>
<path d="M1260.18 298.178C1262.29 299.074 1263.27 301.51 1262.38 303.62C1261.48 305.73 1259.05 306.714 1256.94 305.819C1254.83 304.923 1253.84 302.487 1254.74 300.377C1255.63 298.267 1258.07 297.283 1260.18 298.178Z" fill="#E099E1"/>
<path d="M1311.05 231.351C1309.92 229.39 1310.59 226.882 1312.55 225.75C1314.51 224.618 1317.02 225.29 1318.15 227.251C1319.28 229.212 1318.61 231.719 1316.65 232.851C1314.69 233.984 1312.18 233.312 1311.05 231.351Z" fill="#E099E1"/>
<path d="M10.8518 362.996C8.7245 362.004 7.80414 359.475 8.79611 357.348C9.78809 355.221 12.3168 354.3 14.444 355.292C16.5713 356.284 17.4917 358.813 16.4997 360.94C15.5078 363.068 12.9791 363.988 10.8518 362.996Z" fill="#E099E1"/>
<path d="M207.625 330.314C208.937 328.042 211.842 327.263 214.114 328.575C216.385 329.887 217.164 332.792 215.852 335.064C214.541 337.335 211.635 338.114 209.364 336.802C207.092 335.49 206.313 332.585 207.625 330.314Z" fill="#E099E1"/>
<path d="M354.316 315.017C355.246 317.879 353.679 320.954 350.817 321.884C347.954 322.814 344.879 321.248 343.949 318.385C343.019 315.522 344.586 312.448 347.448 311.518C350.311 310.587 353.386 312.154 354.316 315.017Z" fill="#E099E1"/>
<path d="M511.099 315.288C508.835 314.135 507.935 311.365 509.088 309.101C510.242 306.838 513.012 305.938 515.275 307.091C517.539 308.244 518.439 311.014 517.286 313.278C516.132 315.542 513.362 316.442 511.099 315.288Z" fill="#E099E1"/>
<path d="M595.155 354.797C592.86 353.362 592.163 350.339 593.597 348.044C595.031 345.75 598.054 345.052 600.349 346.486C602.644 347.92 603.342 350.943 601.907 353.238C600.473 355.533 597.45 356.231 595.155 354.797Z" fill="#E099E1"/>
<path d="M721.19 362.079C722.742 363.803 722.603 366.458 720.879 368.01C719.155 369.562 716.499 369.423 714.947 367.699C713.395 365.976 713.534 363.32 715.258 361.768C716.982 360.216 719.638 360.355 721.19 362.079Z" fill="#E099E1"/>
<path d="M969.277 339.021C966.915 340.224 964.024 339.285 962.821 336.923C961.617 334.561 962.557 331.671 964.919 330.467C967.281 329.264 970.171 330.203 971.375 332.565C972.578 334.927 971.639 337.817 969.277 339.021Z" fill="#E099E1"/>
<path d="M1010.94 348.93C1009.32 350.736 1006.54 350.882 1004.73 349.256C1002.92 347.63 1002.78 344.848 1004.4 343.042C1006.03 341.236 1008.81 341.09 1010.62 342.716C1012.42 344.342 1012.57 347.124 1010.94 348.93Z" fill="#E099E1"/>
<path d="M1184.25 365.194C1182.46 364.645 1181.45 362.744 1181.99 360.948C1182.54 359.153 1184.44 358.142 1186.24 358.691C1188.04 359.24 1189.05 361.141 1188.5 362.937C1187.95 364.732 1186.05 365.743 1184.25 365.194Z" fill="#E099E1"/>
<path d="M1336.81 318.477C1339.12 319.981 1339.78 323.077 1338.28 325.393C1336.77 327.709 1333.68 328.367 1331.36 326.863C1329.04 325.359 1328.39 322.263 1329.89 319.947C1331.39 317.631 1334.49 316.973 1336.81 318.477Z" fill="#E099E1"/>
<path d="M62.7198 462.718C62.3223 460.996 63.396 459.278 65.118 458.88C66.84 458.483 68.5582 459.556 68.9558 461.278C69.3534 463 68.2797 464.719 66.5577 465.116C64.8356 465.514 63.1174 464.44 62.7198 462.718Z" fill="#E099E1"/>
<path d="M266.286 448.767C268.889 450.332 269.732 453.711 268.167 456.314C266.603 458.918 263.224 459.76 260.62 458.196C258.016 456.632 257.174 453.253 258.738 450.649C260.303 448.045 263.682 447.203 266.286 448.767Z" fill="#E099E1"/>
<path d="M398.592 441.764C398.817 444.987 396.387 447.783 393.164 448.008C389.941 448.233 387.146 445.803 386.92 442.58C386.695 439.357 389.125 436.562 392.348 436.336C395.571 436.111 398.367 438.541 398.592 441.764Z" fill="#E099E1"/>
<path d="M562.437 447.472C559.434 446.438 557.838 443.166 558.872 440.163C559.906 437.161 563.178 435.565 566.181 436.598C569.183 437.632 570.779 440.905 569.745 443.907C568.712 446.91 565.439 448.506 562.437 447.472Z" fill="#E099E1"/>
<path d="M697.774 437.32C695.69 439.131 692.531 438.91 690.72 436.826C688.908 434.742 689.129 431.584 691.213 429.773C693.297 427.961 696.455 428.182 698.267 430.266C700.078 432.35 699.858 435.508 697.774 437.32Z" fill="#E099E1"/>
<path d="M776.202 439.261C779.404 440.001 781.401 443.196 780.661 446.397C779.922 449.599 776.727 451.596 773.526 450.856C770.324 450.117 768.327 446.922 769.067 443.721C769.806 440.519 773.001 438.522 776.202 439.261Z" fill="#E099E1"/>
<path d="M975.405 411.814C978.495 412.248 980.648 415.105 980.214 418.195C979.779 421.285 976.922 423.438 973.832 423.004C970.742 422.569 968.589 419.712 969.024 416.622C969.458 413.532 972.315 411.379 975.405 411.814Z" fill="#E099E1"/>
<path d="M1060.9 490.374C1061.51 487.737 1064.14 486.093 1066.77 486.702C1069.41 487.311 1071.06 489.942 1070.45 492.579C1069.84 495.216 1067.21 496.86 1064.57 496.251C1061.93 495.642 1060.29 493.011 1060.9 490.374Z" fill="#E099E1"/>
<path d="M1214.82 513.26C1212.16 512.343 1210.74 509.441 1211.66 506.778C1212.58 504.115 1215.48 502.699 1218.14 503.616C1220.81 504.533 1222.22 507.435 1221.3 510.099C1220.39 512.762 1217.49 514.177 1214.82 513.26Z" fill="#E099E1"/>
<path d="M1330.32 429.101C1331.25 432.138 1329.54 435.353 1326.5 436.281C1323.46 437.21 1320.25 435.5 1319.32 432.463C1318.39 429.427 1320.1 426.212 1323.14 425.284C1326.18 424.355 1329.39 426.064 1330.32 429.101Z" fill="#E099E1"/>
<path d="M124.623 587.802C123.174 590.12 120.121 590.826 117.802 589.377C115.484 587.928 114.779 584.874 116.227 582.556C117.676 580.237 120.73 579.532 123.048 580.981C125.367 582.43 126.072 585.484 124.623 587.802Z" fill="#E099E1"/>
<path d="M254.513 520.986C255.887 522.098 256.098 524.113 254.986 525.487C253.874 526.86 251.859 527.072 250.485 525.96C249.112 524.848 248.9 522.833 250.012 521.459C251.125 520.086 253.14 519.874 254.513 520.986Z" fill="#E099E1"/>
<path d="M378.943 523.039C381.736 521.36 385.36 522.264 387.039 525.057C388.717 527.85 387.813 531.475 385.02 533.153C382.227 534.831 378.602 533.928 376.924 531.135C375.246 528.342 376.15 524.717 378.943 523.039Z" fill="#E099E1"/>
<path d="M470.983 559.634C469.336 559.284 468.284 557.664 468.634 556.017C468.984 554.369 470.604 553.317 472.252 553.667C473.899 554.018 474.951 555.637 474.601 557.285C474.251 558.932 472.631 559.984 470.983 559.634Z" fill="#E099E1"/>
<path d="M670.309 530.916C669.586 532.619 667.619 533.414 665.916 532.691C664.213 531.968 663.419 530.001 664.142 528.298C664.864 526.595 666.831 525.801 668.534 526.524C670.237 527.246 671.032 529.213 670.309 530.916Z" fill="#E099E1"/>
<path d="M781.33 571.351C780.596 568.948 781.948 566.404 784.351 565.67C786.754 564.935 789.298 566.287 790.033 568.69C790.767 571.094 789.415 573.637 787.012 574.372C784.609 575.107 782.065 573.754 781.33 571.351Z" fill="#E099E1"/>
<path d="M901.859 562.389C903.594 562.727 904.727 564.406 904.389 566.141C904.052 567.876 902.372 569.009 900.638 568.672C898.903 568.335 897.77 566.655 898.107 564.92C898.444 563.185 900.124 562.052 901.859 562.389Z" fill="#E099E1"/>
<path d="M1047.56 535.038C1049.46 537.226 1049.23 540.542 1047.04 542.444C1044.85 544.346 1041.53 544.115 1039.63 541.926C1037.73 539.738 1037.96 536.422 1040.15 534.52C1042.34 532.618 1045.65 532.849 1047.56 535.038Z" fill="#E099E1"/>
<path d="M1269.92 520.429C1269.41 518.535 1270.54 516.589 1272.43 516.081C1274.32 515.574 1276.27 516.698 1276.78 518.591C1277.28 520.485 1276.16 522.432 1274.27 522.939C1272.37 523.447 1270.43 522.323 1269.92 520.429Z" fill="#E099E1"/>
<path d="M1387.93 578.044C1387.42 575.81 1388.81 573.582 1391.04 573.066C1393.28 572.551 1395.51 573.943 1396.02 576.176C1396.54 578.41 1395.14 580.638 1392.91 581.154C1390.68 581.669 1388.45 580.277 1387.93 578.044Z" fill="#E099E1"/>
<path d="M131.861 618.42C133.595 617.857 135.457 618.805 136.02 620.538C136.583 622.272 135.634 624.133 133.901 624.697C132.168 625.26 130.306 624.311 129.743 622.578C129.18 620.845 130.128 618.983 131.861 618.42Z" fill="#E099E1"/>
<path d="M227.397 629.933C227.178 627.429 229.029 625.222 231.533 625.003C234.036 624.784 236.243 626.636 236.462 629.14C236.681 631.643 234.829 633.85 232.326 634.069C229.822 634.288 227.616 632.436 227.397 629.933Z" fill="#E099E1"/>
<path d="M416.856 640.119C413.622 639.722 411.322 636.778 411.719 633.544C412.116 630.31 415.06 628.01 418.294 628.407C421.528 628.804 423.828 631.748 423.431 634.982C423.034 638.216 420.09 640.516 416.856 640.119Z" fill="#E099E1"/>
<path d="M546.31 656.519C543.93 658.662 540.262 658.47 538.119 656.09C535.976 653.709 536.168 650.042 538.548 647.898C540.929 645.755 544.596 645.947 546.74 648.328C548.883 650.708 548.691 654.376 546.31 656.519Z" fill="#E099E1"/>
<path d="M616.573 622.926C616.809 624.845 615.445 626.591 613.526 626.826C611.607 627.062 609.861 625.698 609.626 623.779C609.39 621.861 610.754 620.114 612.673 619.879C614.592 619.643 616.338 621.007 616.573 622.926Z" fill="#E099E1"/>
<path d="M783.374 638.216C784.824 636.661 787.261 636.576 788.816 638.026C790.371 639.476 790.456 641.912 789.006 643.467C787.556 645.022 785.119 645.107 783.564 643.657C782.009 642.207 781.924 639.771 783.374 638.216Z" fill="#E099E1"/>
<path d="M911.251 708.394C909.456 707.845 908.445 705.944 908.994 704.148C909.543 702.353 911.444 701.342 913.24 701.891C915.035 702.44 916.046 704.341 915.497 706.137C914.948 707.932 913.047 708.943 911.251 708.394Z" fill="#E099E1"/>
<path d="M1025.8 652.255C1024.25 654.544 1021.14 655.148 1018.85 653.604C1016.57 652.06 1015.96 648.952 1017.51 646.663C1019.05 644.374 1022.16 643.769 1024.45 645.314C1026.74 646.858 1027.34 649.965 1025.8 652.255Z" fill="#E099E1"/>
<path d="M1151.7 630.919C1154.07 631.737 1155.34 634.326 1154.52 636.702C1153.7 639.078 1151.11 640.341 1148.74 639.523C1146.36 638.705 1145.1 636.115 1145.91 633.739C1146.73 631.363 1149.32 630.1 1151.7 630.919Z" fill="#E099E1"/>
<path d="M1322.44 718.956C1322.75 716.992 1324.59 715.652 1326.56 715.963C1328.52 716.274 1329.86 718.118 1329.55 720.082C1329.24 722.046 1327.39 723.385 1325.43 723.074C1323.47 722.763 1322.13 720.919 1322.44 718.956Z" fill="#E099E1"/>
<path d="M35.4138 740.896C37.3944 740.291 39.4909 741.405 40.0964 743.386C40.7019 745.367 39.5872 747.463 37.6066 748.069C35.6261 748.674 33.5296 747.559 32.9241 745.579C32.3186 743.598 33.4333 741.502 35.4138 740.896Z" fill="#E099E1"/>
<path d="M178.797 762.889C176.7 762.287 175.487 760.1 176.089 758.003C176.69 755.906 178.877 754.693 180.975 755.295C183.072 755.896 184.284 758.083 183.683 760.18C183.081 762.278 180.894 763.49 178.797 762.889Z" fill="#E099E1"/>
<path d="M294.934 732.725C297.732 731.109 301.31 732.068 302.925 734.866C304.54 737.664 303.582 741.242 300.784 742.857C297.986 744.473 294.408 743.514 292.792 740.716C291.177 737.918 292.136 734.34 294.934 732.725Z" fill="#E099E1"/>
<path d="M568.96 770.804C566.221 769.697 564.897 766.579 566.004 763.839C567.111 761.1 570.229 759.776 572.969 760.883C575.708 761.99 577.032 765.108 575.925 767.848C574.818 770.587 571.7 771.911 568.96 770.804Z" fill="#E099E1"/>
<path d="M664.906 772.835C664.406 774.473 662.673 775.394 661.035 774.894C659.398 774.393 658.477 772.66 658.977 771.023C659.478 769.385 661.211 768.464 662.848 768.964C664.485 769.465 665.407 771.198 664.906 772.835Z" fill="#E099E1"/>
<path d="M729.106 722.005C727.943 723.548 725.749 723.857 724.205 722.694C722.661 721.53 722.353 719.336 723.516 717.792C724.679 716.248 726.874 715.94 728.417 717.103C729.961 718.266 730.27 720.461 729.106 722.005Z" fill="#E099E1"/>
<path d="M935.895 737.574C937.61 737.146 939.347 738.19 939.774 739.905C940.202 741.62 939.158 743.356 937.443 743.784C935.729 744.211 933.992 743.168 933.564 741.453C933.137 739.738 934.18 738.002 935.895 737.574Z" fill="#E099E1"/>
<path d="M1029.83 822.169C1031.58 819.756 1034.96 819.221 1037.37 820.974C1039.78 822.727 1040.32 826.104 1038.56 828.517C1036.81 830.929 1033.43 831.464 1031.02 829.711C1028.61 827.958 1028.07 824.581 1029.83 822.169Z" fill="#E099E1"/>
<path d="M1290.47 728.538C1292.97 727.578 1295.78 728.827 1296.74 731.328C1297.7 733.828 1296.45 736.634 1293.95 737.594C1291.45 738.554 1288.64 737.305 1287.68 734.804C1286.72 732.303 1287.97 729.498 1290.47 728.538Z" fill="#E099E1"/>
<path d="M1330.28 727.535C1331.23 729.89 1330.09 732.571 1327.73 733.523C1325.38 734.475 1322.7 733.337 1321.75 730.981C1320.8 728.626 1321.93 725.945 1324.29 724.993C1326.64 724.041 1329.33 725.179 1330.28 727.535Z" fill="#E099E1"/>
<path d="M125.088 867.249C125.039 864.461 127.261 862.16 130.049 862.112C132.838 862.063 135.138 864.284 135.187 867.073C135.235 869.862 133.014 872.162 130.225 872.21C127.437 872.259 125.137 870.038 125.088 867.249Z" fill="#E099E1"/>
<path d="M233.748 848.948C231.678 846.878 231.678 843.522 233.748 841.452C235.817 839.383 239.173 839.383 241.243 841.452C243.313 843.522 243.313 846.878 241.243 848.948C239.173 851.017 235.817 851.017 233.748 848.948Z" fill="#E099E1"/>
<path d="M295.331 872.064C296.253 874.901 294.701 877.947 291.864 878.869C289.028 879.79 285.981 878.238 285.06 875.402C284.138 872.565 285.691 869.519 288.527 868.597C291.363 867.676 294.41 869.228 295.331 872.064Z" fill="#E099E1"/>
<path d="M488.538 915.657C489.345 912.643 492.443 910.855 495.457 911.662C498.472 912.47 500.26 915.568 499.453 918.582C498.645 921.596 495.547 923.385 492.533 922.577C489.519 921.77 487.73 918.672 488.538 915.657Z" fill="#E099E1"/>
<path d="M685.557 910.291C686.906 911.345 687.146 913.294 686.091 914.643C685.037 915.992 683.089 916.231 681.74 915.177C680.391 914.123 680.152 912.175 681.206 910.826C682.26 909.477 684.208 909.237 685.557 910.291Z" fill="#E099E1"/>
<path d="M828.453 880.071C825.994 877.933 825.733 874.206 827.871 871.747C830.008 869.288 833.735 869.027 836.194 871.165C838.654 873.303 838.914 877.029 836.776 879.489C834.639 881.948 830.912 882.208 828.453 880.071Z" fill="#E099E1"/>
<path d="M948.162 907.615C950.282 905.177 953.977 904.918 956.415 907.038C958.853 909.158 959.112 912.853 956.992 915.291C954.872 917.729 951.177 917.988 948.739 915.868C946.301 913.748 946.042 910.053 948.162 907.615Z" fill="#E099E1"/>
<path d="M1028.88 834.706C1031.16 834.426 1033.23 836.044 1033.51 838.319C1033.79 840.594 1032.17 842.665 1029.89 842.944C1027.62 843.223 1025.55 841.605 1025.27 839.331C1024.99 837.056 1026.61 834.985 1028.88 834.706Z" fill="#E099E1"/>
<path d="M1204.3 886.969C1205.24 889.858 1203.66 892.961 1200.77 893.9C1197.88 894.838 1194.78 893.257 1193.84 890.368C1192.9 887.479 1194.48 884.377 1197.37 883.438C1200.26 882.499 1203.36 884.08 1204.3 886.969Z" fill="#E099E1"/>
<path d="M1318.51 881.077C1319.33 878.383 1322.18 876.868 1324.88 877.691C1327.57 878.515 1329.09 881.366 1328.26 884.059C1327.44 886.753 1324.59 888.269 1321.89 887.445C1319.2 886.622 1317.69 883.771 1318.51 881.077Z" fill="#E099E1"/>
<path d="M10.28 971.257C10.1253 974.208 7.60799 976.475 4.65732 976.32C1.70664 976.165 -0.559992 973.648 -0.405354 970.697C-0.250715 967.747 2.26664 965.48 5.21731 965.635C8.16799 965.789 10.4346 968.307 10.28 971.257Z" fill="#E099E1"/>
<path d="M150.653 979.351C153.606 978.936 156.336 980.994 156.752 983.947C157.167 986.901 155.109 989.631 152.156 990.046C149.202 990.461 146.472 988.404 146.057 985.45C145.642 982.497 147.699 979.766 150.653 979.351Z" fill="#E099E1"/>
<path d="M372.169 984.155C370.419 984.401 368.801 983.181 368.555 981.431C368.309 979.681 369.528 978.063 371.278 977.817C373.028 977.571 374.646 978.79 374.892 980.54C375.138 982.29 373.919 983.909 372.169 984.155Z" fill="#E099E1"/>
<path d="M528.534 945.087C530.448 944.818 532.218 946.152 532.487 948.066C532.756 949.98 531.422 951.75 529.508 952.019C527.594 952.288 525.824 950.954 525.555 949.04C525.286 947.126 526.62 945.356 528.534 945.087Z" fill="#E099E1"/>
<path d="M581.738 946.11C583.539 948.59 582.99 952.06 580.51 953.862C578.03 955.664 574.559 955.114 572.758 952.634C570.956 950.154 571.506 946.684 573.986 944.882C576.465 943.08 579.936 943.63 581.738 946.11Z" fill="#E099E1"/>
<path d="M803.6 981.666C804.373 979.42 806.82 978.227 809.066 979C811.311 979.773 812.505 982.22 811.732 984.466C810.958 986.711 808.511 987.904 806.266 987.131C804.02 986.358 802.827 983.911 803.6 981.666Z" fill="#E099E1"/>
<path d="M925.556 981.674C924.144 982.738 922.138 982.456 921.074 981.044C920.011 979.633 920.293 977.626 921.704 976.563C923.115 975.499 925.122 975.781 926.185 977.193C927.249 978.604 926.967 980.61 925.556 981.674Z" fill="#E099E1"/>
<path d="M1103.08 983.857C1104.69 985.924 1104.32 988.909 1102.26 990.524C1100.19 992.139 1097.2 991.773 1095.59 989.706C1093.97 987.638 1094.34 984.653 1096.41 983.038C1098.48 981.423 1101.46 981.79 1103.08 983.857Z" fill="#E099E1"/>
<path d="M1247.11 956.063C1246.5 953.598 1248 951.102 1250.46 950.487C1252.93 949.872 1255.42 951.373 1256.04 953.838C1256.65 956.303 1255.15 958.799 1252.69 959.414C1250.22 960.028 1247.73 958.528 1247.11 956.063Z" fill="#E099E1"/>
<path d="M1362.03 999.766C1360.36 997.465 1360.87 994.245 1363.17 992.573C1365.47 990.901 1368.69 991.411 1370.36 993.712C1372.03 996.013 1371.52 999.234 1369.22 1000.91C1366.92 1002.58 1363.7 1002.07 1362.03 999.766Z" fill="#E099E1"/>
<path d="M89 97.9999L83.8804 90.1164L92.5522 84.4848L97.6718 92.3683L89 97.9999Z" fill="#60CC98"/>
<path d="M145 39.9999L140.2 48.6586L130.676 43.3791L135.475 34.7203L145 39.9999Z" fill="#60CC98"/>
<path d="M385 25.9999L388.392 37.0931L376.189 40.8237L372.798 29.7306L385 25.9999Z" fill="#60CC98"/>
<path d="M569 40.9999L564.383 35.8722L570.023 30.7935L574.64 35.9212L569 40.9999Z" fill="#60CC98"/>
<path d="M692 73.9999L695.297 82.1591L686.321 85.7853L683.025 77.6261L692 73.9999Z" fill="#60CC98"/>
<path d="M863 76.9999L855.79 75.8579L857.046 67.9268L864.256 69.0688L863 76.9999Z" fill="#60CC98"/>
<path d="M971 11.9999L962.883 5.6586L969.859 -3.26956L977.975 3.07175L971 11.9999Z" fill="#60CC98"/>
<path d="M1018 52.9999L1024.25 55.916L1021.05 62.7949L1014.79 59.8788L1018 52.9999Z" fill="#60CC98"/>
<path d="M1162 85.9999L1168.41 82.2999L1172.48 89.3494L1166.07 93.0494L1162 85.9999Z" fill="#60CC98"/>
<path d="M1359 21.9999L1359.81 33.5717L1347.08 34.4618L1346.27 22.89L1359 21.9999Z" fill="#60CC98"/>
<path d="M75 183.4L65.7509 184.372L64.6816 174.198L73.9307 173.226L75 183.4Z" fill="#60CC98"/>
<path d="M175 164.4L176.858 174.937L165.267 176.981L163.409 166.444L175 164.4Z" fill="#60CC98"/>
<path d="M415 179.4L412.505 191.138L399.594 188.393L402.088 176.655L415 179.4Z" fill="#60CC98"/>
<path d="M517 116.4L514.127 105.678L525.921 102.518L528.794 113.24L517 116.4Z" fill="#60CC98"/>
<path d="M710 173.4L717.113 175.042L715.307 182.866L708.194 181.224L710 173.4Z" fill="#60CC98"/>
<path d="M793 116.4L782.534 114.175L784.981 102.662L795.447 104.887L793 116.4Z" fill="#60CC98"/>
<path d="M943 141.4L948.305 150.229L938.593 156.064L933.288 147.235L943 141.4Z" fill="#60CC98"/>
<path d="M1038 125.4L1035.96 134.986L1025.42 132.744L1027.46 123.159L1038 125.4Z" fill="#60CC98"/>
<path d="M1191 106.4L1195.76 113.199L1188.28 118.436L1183.52 111.637L1191 106.4Z" fill="#60CC98"/>
<path d="M1352 185.4L1356.35 178.446L1363.99 183.226L1359.65 190.18L1352 185.4Z" fill="#60CC98"/>
<path d="M6.99998 234.8L7.15357 226.001L16.8321 226.17L16.6785 234.969L6.99998 234.8Z" fill="#60CC98"/>
<path d="M173 299.8L178.611 305.218L172.651 311.39L167.04 305.972L173 299.8Z" fill="#60CC98"/>
<path d="M303 218.8L296.285 213.921L301.652 206.535L308.366 211.414L303 218.8Z" fill="#60CC98"/>
<path d="M509 222.8L515.717 227.503L510.543 234.892L503.826 230.189L509 222.8Z" fill="#60CC98"/>
<path d="M645 240.8L633.245 239.771L634.376 226.841L646.131 227.869L645 240.8Z" fill="#60CC98"/>
<path d="M720 277.8L721.497 284.843L713.75 286.489L712.253 279.447L720 277.8Z" fill="#60CC98"/>
<path d="M879 263.8L887.337 256.025L895.89 265.196L887.552 272.971L879 263.8Z" fill="#60CC98"/>
<path d="M1140 242.8L1141.81 254.257L1129.21 256.253L1127.4 244.796L1140 242.8Z" fill="#60CC98"/>
<path d="M1240 253.8L1241.35 262.294L1232 263.774L1230.66 255.28L1240 253.8Z" fill="#60CC98"/>
<path d="M1318 285.8L1314.29 276.621L1324.39 272.541L1328.1 281.72L1318 285.8Z" fill="#60CC98"/>
<path d="M43 380.2V389.9H32.33V380.2H43Z" fill="#60CC98"/>
<path d="M252 331.2L247.629 325.991L253.359 321.183L257.73 326.392L252 331.2Z" fill="#60CC98"/>
<path d="M311 403.2L305.642 399.013L310.247 393.119L315.605 397.306L311 403.2Z" fill="#60CC98"/>
<path d="M526 375.2L526.351 381.891L518.991 382.276L518.64 375.586L526 375.2Z" fill="#60CC98"/>
<path d="M613 328.2L623.759 327.259L624.794 339.093L614.035 340.035L613 328.2Z" fill="#60CC98"/>
<path d="M732 334.2L737.029 344.985L725.166 350.517L720.136 339.732L732 334.2Z" fill="#60CC98"/>
<path d="M920 307.2L913.734 307.858L913.01 300.966L919.276 300.308L920 307.2Z" fill="#60CC98"/>
<path d="M1131 376.2L1120.18 374.872L1121.64 362.971L1132.46 364.299L1131 376.2Z" fill="#60CC98"/>
<path d="M1153 395.2L1153.59 406.484L1141.18 407.135L1140.59 395.85L1153 395.2Z" fill="#60CC98"/>
<path d="M1380 387.2L1387.56 390.103L1384.37 398.421L1376.81 395.518L1380 387.2Z" fill="#60CC98"/>
<path d="M90 421.6L91.7996 429.395L83.2251 431.374L81.4255 423.579L90 421.6Z" fill="#60CC98"/>
<path d="M246 497.6L243.266 508.564L231.205 505.557L233.939 494.593L246 497.6Z" fill="#60CC98"/>
<path d="M406 421.6L402.907 430.582L393.026 427.18L396.119 418.198L406 421.6Z" fill="#60CC98"/>
<path d="M498 488.6L490.826 479.74L500.571 471.849L507.745 480.708L498 488.6Z" fill="#60CC98"/>
<path d="M709 426.6L714.862 428.618L712.642 435.067L706.78 433.048L709 426.6Z" fill="#60CC98"/>
<path d="M831 490.6L823.442 489.806L824.315 481.491L831.874 482.286L831 490.6Z" fill="#60CC98"/>
<path d="M901 463.6L899.636 453.895L910.311 452.395L911.675 462.1L901 463.6Z" fill="#60CC98"/>
<path d="M1136 445.6L1145.18 448.059L1142.47 458.153L1133.3 455.694L1136 445.6Z" fill="#60CC98"/>
<path d="M1164 444.6L1152.95 446.949L1150.36 434.791L1161.42 432.442L1164 444.6Z" fill="#60CC98"/>
<path d="M1353 490.6L1363.94 486.18L1368.8 498.214L1357.86 502.635L1353 490.6Z" fill="#60CC98"/>
<path d="M138 604L144.375 605.708L142.496 612.721L136.121 611.013L138 604Z" fill="#60CC98"/>
<path d="M193 604L199.363 598.067L205.889 605.066L199.527 610.999L193 604Z" fill="#60CC98"/>
<path d="M353 613L352.174 605.143L360.817 604.235L361.642 612.092L353 613Z" fill="#60CC98"/>
<path d="M537 530L528.62 529.414L529.265 520.196L537.645 520.782L537 530Z" fill="#60CC98"/>
<path d="M582 604L574.764 606.633L571.867 598.674L579.103 596.041L582 604Z" fill="#60CC98"/>
<path d="M775 580L763.966 584.458L759.063 572.321L770.096 567.863L775 580Z" fill="#60CC98"/>
<path d="M893 589L883.512 586.983L885.73 576.546L895.218 578.563L893 589Z" fill="#60CC98"/>
<path d="M1141 572L1145.5 567.173L1150.81 572.124L1146.31 576.951L1141 572Z" fill="#60CC98"/>
<path d="M1227 556L1229.51 562.212L1222.68 564.973L1220.17 558.761L1227 556Z" fill="#60CC98"/>
<path d="M1352 585L1361.58 586.517L1359.91 597.056L1350.33 595.539L1352 585Z" fill="#60CC98"/>
<path d="M79 661.4L83.1207 652.951L92.4142 657.484L88.2935 665.933L79 661.4Z" fill="#60CC98"/>
<path d="M219 618.4L228.372 621.265L225.22 631.574L215.848 628.709L219 618.4Z" fill="#60CC98"/>
<path d="M332 697.4L339.299 697.527L339.159 705.556L331.86 705.429L332 697.4Z" fill="#60CC98"/>
<path d="M450 680.4L455.286 675.965L460.164 681.779L454.879 686.214L450 680.4Z" fill="#60CC98"/>
<path d="M612 699.4L609.037 708.004L599.573 704.745L602.535 696.141L612 699.4Z" fill="#60CC98"/>
<path d="M801 661.4L805.585 667.71L798.643 672.753L794.059 666.443L801 661.4Z" fill="#60CC98"/>
<path d="M987 687.4L980.878 690.794L977.145 684.059L983.267 680.665L987 687.4Z" fill="#60CC98"/>
<path d="M1030 695.4L1020.44 692.838L1023.26 682.319L1032.82 684.881L1030 695.4Z" fill="#60CC98"/>
<path d="M1180 696.4L1178.66 686.893L1189.12 685.424L1190.46 694.93L1180 696.4Z" fill="#60CC98"/>
<path d="M1394 692.4L1389.82 684.203L1398.84 679.608L1403.02 687.806L1394 692.4Z" fill="#60CC98"/>
<path d="M136 805.8L143.73 802.03L147.877 810.533L140.147 814.302L136 805.8Z" fill="#60CC98"/>
<path d="M215 722.8L216.622 730.429L208.229 732.213L206.607 724.584L215 722.8Z" fill="#60CC98"/>
<path d="M418 778.8L422.353 769.465L432.621 774.253L428.268 783.588L418 778.8Z" fill="#60CC98"/>
<path d="M509 719.8L518.199 719.96L518.022 730.079L508.823 729.918L509 719.8Z" fill="#60CC98"/>
<path d="M647 801.8L650.032 791.226L661.663 794.561L658.631 805.135L647 801.8Z" fill="#60CC98"/>
<path d="M859 721.8L864.196 718.8L867.496 724.516L862.3 727.516L859 721.8Z" fill="#60CC98"/>
<path d="M908 794.8L902.2 797.505L899.224 791.124L905.025 788.419L908 794.8Z" fill="#60CC98"/>
<path d="M1014 742.8L1008.41 738.587L1013.04 732.438L1018.63 736.65L1014 742.8Z" fill="#60CC98"/>
<path d="M1204 716.8L1202.32 710.521L1209.22 708.671L1210.91 714.949L1204 716.8Z" fill="#60CC98"/>
<path d="M1405 777.8L1411.25 786.729L1401.43 793.606L1395.18 784.677L1405 777.8Z" fill="#60CC98"/>
<path d="M128 832.2L122.644 839.056L115.102 833.164L120.459 826.308L128 832.2Z" fill="#60CC98"/>
<path d="M204 902.2L197.303 903.381L196.004 896.014L202.701 894.834L204 902.2Z" fill="#60CC98"/>
<path d="M431 912.2L429.416 920.347L420.454 918.605L422.038 910.458L431 912.2Z" fill="#60CC98"/>
<path d="M491 867.2L498.432 863.734L502.244 871.909L494.812 875.375L491 867.2Z" fill="#60CC98"/>
<path d="M666 832.2L675.62 834.07L673.563 844.652L663.943 842.782L666 832.2Z" fill="#60CC98"/>
<path d="M731 819.2L723.741 823.224L719.314 815.239L726.574 811.215L731 819.2Z" fill="#60CC98"/>
<path d="M890 884.2L901.033 879.742L905.937 891.879L894.904 896.337L890 884.2Z" fill="#60CC98"/>
<path d="M1131 849.2L1135.45 856.908L1126.97 861.803L1122.52 854.095L1131 849.2Z" fill="#60CC98"/>
<path d="M1207 905.2L1217.79 910.229L1212.25 922.093L1201.47 917.063L1207 905.2Z" fill="#60CC98"/>
<path d="M1388 856.2L1390.95 846.541L1401.58 849.789L1398.62 859.448L1388 856.2Z" fill="#60CC98"/>
<path d="M136 953.6L146.9 949.632L151.265 961.623L140.364 965.59L136 953.6Z" fill="#60CC98"/>
<path d="M220 1017.6L227.927 1024.02L220.866 1032.74L212.939 1026.32L220 1017.6Z" fill="#60CC98"/>
<path d="M293 1022.6L292.449 1014.72L301.118 1014.11L301.669 1021.99L293 1022.6Z" fill="#60CC98"/>
<path d="M561 951.6L570.036 945.505L576.741 955.445L567.705 961.54L561 951.6Z" fill="#60CC98"/>
<path d="M632 940.6L638.561 937.4L642.081 944.617L635.52 947.817L632 940.6Z" fill="#60CC98"/>
<path d="M798 977.6L789.598 980.825L786.05 971.583L794.452 968.357L798 977.6Z" fill="#60CC98"/>
<path d="M886 962.6L893.538 968.704L886.823 976.996L879.285 970.892L886 962.6Z" fill="#60CC98"/>
<path d="M1096 1007.6L1089.17 1017.35L1078.45 1009.84L1085.28 1000.09L1096 1007.6Z" fill="#60CC98"/>
<path d="M1253 985.6L1247.65 981.568L1252.08 975.682L1257.44 979.714L1253 985.6Z" fill="#60CC98"/>
<path d="M1365 980.6L1355.3 985.122L1350.33 974.455L1360.03 969.933L1365 980.6Z" fill="#60CC98"/>
<path d="M128 73.9999L128.452 71.6735L133.881 72.7286L133.428 75.0551L128 73.9999Z" fill="#55C4E8"/>
<path d="M131.102 74.6029L132.308 68.399L134.634 68.8512L133.428 75.0551L131.102 74.6029Z" fill="#55C4E8"/>
<path d="M131.856 70.7254L132.308 68.399L137.736 69.4542L137.284 71.7806L131.856 70.7254Z" fill="#55C4E8"/>
<path d="M249 58.9999L249.045 56.4203L255.064 56.5254L255.019 59.105L249 58.9999Z" fill="#55C4E8"/>
<path d="M252.439 59.06L252.56 52.181L255.139 52.226L255.019 59.105L252.439 59.06Z" fill="#55C4E8"/>
<path d="M252.514 54.7606L252.56 52.181L258.579 52.2861L258.534 54.8657L252.514 54.7606Z" fill="#55C4E8"/>
<path d="M292 34.9999L290.417 36.4252L287.092 32.7317L288.674 31.3065L292 34.9999Z" fill="#55C4E8"/>
<path d="M290.1 32.8894L285.879 36.69L284.453 35.1071L288.674 31.3065L290.1 32.8894Z" fill="#55C4E8"/>
<path d="M287.461 35.2648L285.879 36.69L282.553 32.9966L284.136 31.5714L287.461 35.2648Z" fill="#55C4E8"/>
<path d="M504 6.99992L501.061 8.62888L497.26 1.77186L500.199 0.142898L504 6.99992Z" fill="#55C4E8"/>
<path d="M501.828 3.08162L493.991 7.42551L492.362 4.48679L500.199 0.142898L501.828 3.08162Z" fill="#55C4E8"/>
<path d="M496.93 5.79655L493.991 7.42551L490.191 0.568496L493.129 -1.06046L496.93 5.79655Z" fill="#55C4E8"/>
<path d="M618 33.9999L619.134 31.9533L623.91 34.6004L622.775 36.647L618 33.9999Z" fill="#55C4E8"/>
<path d="M620.729 35.5125L623.754 30.0549L625.801 31.1894L622.775 36.647L620.729 35.5125Z" fill="#55C4E8"/>
<path d="M622.62 32.1015L623.754 30.0549L628.529 32.702L627.395 34.7486L622.62 32.1015Z" fill="#55C4E8"/>
<path d="M811 69.9999L808.734 70.6928L807.117 65.4045L809.383 64.7115L811 69.9999Z" fill="#55C4E8"/>
<path d="M810.076 66.978L804.032 68.8258L803.339 66.5593L809.383 64.7115L810.076 66.978Z" fill="#55C4E8"/>
<path d="M806.299 68.1329L804.032 68.8258L802.415 63.5374L804.682 62.8445L806.299 68.1329Z" fill="#55C4E8"/>
<path d="M974 29.9999L974.468 27.7991L979.603 28.8906L979.135 31.0915L974 29.9999Z" fill="#55C4E8"/>
<path d="M976.934 30.6236L978.182 24.7548L980.383 25.2226L979.135 31.0915L976.934 30.6236Z" fill="#55C4E8"/>
<path d="M977.714 26.9556L978.182 24.7548L983.317 25.8463L982.849 28.0471L977.714 26.9556Z" fill="#55C4E8"/>
<path d="M1047 29.9999L1048.03 28.5254L1051.47 30.9345L1050.44 32.4089L1047 29.9999Z" fill="#55C4E8"/>
<path d="M1048.97 31.3765L1051.72 27.4446L1053.19 28.477L1050.44 32.4089L1048.97 31.3765Z" fill="#55C4E8"/>
<path d="M1050.69 28.919L1051.72 27.4446L1055.16 29.8536L1054.13 31.3281L1050.69 28.919Z" fill="#55C4E8"/>
<path d="M1265 46.9999L1262.36 47.8069L1260.48 41.6483L1263.12 40.8413L1265 46.9999Z" fill="#55C4E8"/>
<path d="M1263.92 43.4807L1256.89 45.6326L1256.08 42.9932L1263.12 40.8413L1263.92 43.4807Z" fill="#55C4E8"/>
<path d="M1259.53 44.8256L1256.89 45.6326L1255 39.474L1257.64 38.667L1259.53 44.8256Z" fill="#55C4E8"/>
<path d="M1298 23.9999L1296.93 21.4869L1302.8 18.998L1303.86 21.511L1298 23.9999Z" fill="#55C4E8"/>
<path d="M1301.35 22.5777L1298.51 15.8764L1301.02 14.8097L1303.86 21.511L1301.35 22.5777Z" fill="#55C4E8"/>
<path d="M1299.57 18.3894L1298.51 15.8764L1304.37 13.3874L1305.44 15.9004L1299.57 18.3894Z" fill="#55C4E8"/>
<path d="M19 128.4L16.298 126.84L19.938 120.535L22.64 122.095L19 128.4Z" fill="#55C4E8"/>
<path d="M21.08 124.797L13.8747 120.637L15.4347 117.935L22.64 122.095L21.08 124.797Z" fill="#55C4E8"/>
<path d="M16.5767 122.197L13.8747 120.637L17.5147 114.333L20.2167 115.893L16.5767 122.197Z" fill="#55C4E8"/>
<path d="M144 180.4L146.414 181.738L143.292 187.371L140.878 186.032L144 180.4Z" fill="#55C4E8"/>
<path d="M142.216 183.619L148.653 187.187L147.315 189.601L140.878 186.032L142.216 183.619Z" fill="#55C4E8"/>
<path d="M146.239 185.849L148.653 187.187L145.531 192.819L143.117 191.481L146.239 185.849Z" fill="#55C4E8"/>
<path d="M409 103.4L407.594 101.06L413.054 97.7791L414.46 100.119L409 103.4Z" fill="#55C4E8"/>
<path d="M412.12 101.525L408.371 95.285L410.711 93.8789L414.46 100.119L412.12 101.525Z" fill="#55C4E8"/>
<path d="M409.777 97.6251L408.371 95.285L413.831 92.0042L415.237 94.3443L409.777 97.6251Z" fill="#55C4E8"/>
<path d="M545 167.4L547.457 167.529L547.156 173.261L544.7 173.132L545 167.4Z" fill="#55C4E8"/>
<path d="M544.828 170.675L551.379 171.019L551.251 173.475L544.7 173.132L544.828 170.675Z" fill="#55C4E8"/>
<path d="M548.923 170.89L551.379 171.019L551.079 176.751L548.622 176.622L548.923 170.89Z" fill="#55C4E8"/>
<path d="M666 165.4L664.116 162.989L669.742 158.593L671.626 161.004L666 165.4Z" fill="#55C4E8"/>
<path d="M669.215 162.888L664.191 156.458L666.603 154.574L671.626 161.004L669.215 162.888Z" fill="#55C4E8"/>
<path d="M666.075 158.869L664.191 156.458L669.818 152.062L671.702 154.473L666.075 158.869Z" fill="#55C4E8"/>
<path d="M862 164.4L862.921 167.412L855.892 169.561L854.971 166.549L862 164.4Z" fill="#55C4E8"/>
<path d="M857.984 165.628L860.439 173.661L857.427 174.582L854.971 166.549L857.984 165.628Z" fill="#55C4E8"/>
<path d="M859.518 170.648L860.439 173.661L853.411 175.81L852.49 172.797L859.518 170.648Z" fill="#55C4E8"/>
<path d="M974 202.4L975.09 199.832L981.083 202.375L979.992 204.944L974 202.4Z" fill="#55C4E8"/>
<path d="M977.424 203.853L980.331 197.005L982.9 198.095L979.992 204.944L977.424 203.853Z" fill="#55C4E8"/>
<path d="M979.241 199.573L980.331 197.005L986.324 199.549L985.234 202.117L979.241 199.573Z" fill="#55C4E8"/>
<path d="M1149 182.4L1147.14 182.465L1146.99 178.127L1148.85 178.063L1149 182.4Z" fill="#55C4E8"/>
<path d="M1148.91 179.921L1143.96 180.095L1143.89 178.236L1148.85 178.063L1148.91 179.921Z" fill="#55C4E8"/>
<path d="M1145.82 180.03L1143.96 180.095L1143.8 175.757L1145.66 175.692L1145.82 180.03Z" fill="#55C4E8"/>
<path d="M1226 138.4L1227.89 138.979L1226.54 143.397L1224.65 142.818L1226 138.4Z" fill="#55C4E8"/>
<path d="M1225.23 140.925L1230.28 142.468L1229.7 144.362L1224.65 142.818L1225.23 140.925Z" fill="#55C4E8"/>
<path d="M1228.38 141.889L1230.28 142.468L1228.93 146.886L1227.03 146.308L1228.38 141.889Z" fill="#55C4E8"/>
<path d="M1310 186.4L1310.81 183.386L1317.84 185.27L1317.03 188.284L1310 186.4Z" fill="#55C4E8"/>
<path d="M1314.02 187.477L1316.17 179.44L1319.19 180.248L1317.03 188.284L1314.02 187.477Z" fill="#55C4E8"/>
<path d="M1315.36 182.454L1316.17 179.44L1323.2 181.324L1322.4 184.338L1315.36 182.454Z" fill="#55C4E8"/>
<path d="M41 261.8L38.5715 261.715L38.7693 256.049L41.1979 256.133L41 261.8Z" fill="#55C4E8"/>
<path d="M41.1131 258.562L34.637 258.336L34.7218 255.907L41.1979 256.133L41.1131 258.562Z" fill="#55C4E8"/>
<path d="M37.0655 258.421L34.637 258.336L34.8349 252.669L37.2634 252.754L37.0655 258.421Z" fill="#55C4E8"/>
<path d="M171 217.8L172.964 219.906L168.049 224.489L166.085 222.383L171 217.8Z" fill="#55C4E8"/>
<path d="M168.192 220.419L173.429 226.036L171.323 228L166.085 222.383L168.192 220.419Z" fill="#55C4E8"/>
<path d="M171.465 223.929L173.429 226.036L168.515 230.619L166.55 228.512L171.465 223.929Z" fill="#55C4E8"/>
<path d="M377 210.8L379.353 211.703L377.245 217.192L374.893 216.289L377 210.8Z" fill="#55C4E8"/>
<path d="M375.796 213.937L382.07 216.345L381.166 218.698L374.893 216.289L375.796 213.937Z" fill="#55C4E8"/>
<path d="M379.717 215.442L382.07 216.345L379.962 221.834L377.61 220.931L379.717 215.442Z" fill="#55C4E8"/>
<path d="M522 222.8L520.934 226.081L513.278 223.593L514.344 220.312L522 222.8Z" fill="#55C4E8"/>
<path d="M517.625 221.378L514.782 230.128L511.501 229.062L514.344 220.312L517.625 221.378Z" fill="#55C4E8"/>
<path d="M515.848 226.847L514.782 230.128L507.126 227.641L508.192 224.359L515.848 226.847Z" fill="#55C4E8"/>
<path d="M717 257.8L716.656 255.001L723.187 254.199L723.531 256.998L717 257.8Z" fill="#55C4E8"/>
<path d="M720.732 257.342L719.815 249.878L722.615 249.534L723.531 256.998L720.732 257.342Z" fill="#55C4E8"/>
<path d="M720.159 252.677L719.815 249.878L726.346 249.076L726.69 251.875L720.159 252.677Z" fill="#55C4E8"/>
<path d="M826 235.8L827.878 235.401L828.809 239.783L826.931 240.182L826 235.8Z" fill="#55C4E8"/>
<path d="M826.532 238.304L831.54 237.239L831.94 239.118L826.931 240.182L826.532 238.304Z" fill="#55C4E8"/>
<path d="M829.662 237.639L831.54 237.239L832.472 241.622L830.594 242.021L829.662 237.639Z" fill="#55C4E8"/>
<path d="M940 270.8L938.437 272.418L934.66 268.771L936.223 267.153L940 270.8Z" fill="#55C4E8"/>
<path d="M937.842 268.716L933.674 273.032L932.055 271.469L936.223 267.153L937.842 268.716Z" fill="#55C4E8"/>
<path d="M935.237 271.413L933.674 273.032L929.897 269.385L931.46 267.767L935.237 271.413Z" fill="#55C4E8"/>
<path d="M1098 251.8L1094.82 250.11L1098.76 242.693L1101.94 244.383L1098 251.8Z" fill="#55C4E8"/>
<path d="M1100.25 247.562L1091.78 243.055L1093.47 239.876L1101.94 244.383L1100.25 247.562Z" fill="#55C4E8"/>
<path d="M1094.96 244.745L1091.78 243.055L1095.72 235.638L1098.9 237.328L1094.96 244.745Z" fill="#55C4E8"/>
<path d="M1250 299.8L1250.17 302.224L1244.51 302.62L1244.34 300.195L1250 299.8Z" fill="#55C4E8"/>
<path d="M1246.77 300.026L1247.22 306.49L1244.8 306.66L1244.34 300.195L1246.77 300.026Z" fill="#55C4E8"/>
<path d="M1247.05 304.066L1247.22 306.49L1241.56 306.886L1241.39 304.462L1247.05 304.066Z" fill="#55C4E8"/>
<path d="M1427 278.8L1426.55 280.729L1422.05 279.69L1422.5 277.761L1427 278.8Z" fill="#55C4E8"/>
<path d="M1424.43 278.206L1423.24 283.351L1421.31 282.905L1422.5 277.761L1424.43 278.206Z" fill="#55C4E8"/>
<path d="M1423.69 281.421L1423.24 283.351L1418.74 282.311L1419.18 280.382L1423.69 281.421Z" fill="#55C4E8"/>
<path d="M17 354.2L18.6003 356.485L13.2676 360.219L11.6673 357.934L17 354.2Z" fill="#55C4E8"/>
<path d="M13.9527 356.334L18.2201 362.428L15.9347 364.028L11.6673 357.934L13.9527 356.334Z" fill="#55C4E8"/>
<path d="M16.6199 360.143L18.2201 362.428L12.8875 366.162L11.2872 363.877L16.6199 360.143Z" fill="#55C4E8"/>
<path d="M213 407.2L212.58 403.776L220.57 402.795L220.99 406.219L213 407.2Z" fill="#55C4E8"/>
<path d="M217.566 406.639L216.445 397.508L219.869 397.087L220.99 406.219L217.566 406.639Z" fill="#55C4E8"/>
<path d="M216.865 400.932L216.445 397.508L224.434 396.527L224.855 399.951L216.865 400.932Z" fill="#55C4E8"/>
<path d="M335 393.2L336.107 396.085L329.376 398.669L328.269 395.784L335 393.2Z" fill="#55C4E8"/>
<path d="M331.154 394.676L334.107 402.369L331.222 403.476L328.269 395.784L331.154 394.676Z" fill="#55C4E8"/>
<path d="M332.999 399.484L334.107 402.369L327.375 404.953L326.268 402.068L332.999 399.484Z" fill="#55C4E8"/>
<path d="M544 326.2L541.105 325.689L542.296 318.934L545.191 319.444L544 326.2Z" fill="#55C4E8"/>
<path d="M544.681 322.339L536.96 320.978L537.47 318.083L545.191 319.444L544.681 322.339Z" fill="#55C4E8"/>
<path d="M539.855 321.489L536.96 320.978L538.151 314.222L541.046 314.733L539.855 321.489Z" fill="#55C4E8"/>
<path d="M634 308.2L636.137 309.993L631.953 314.98L629.815 313.187L634 308.2Z" fill="#55C4E8"/>
<path d="M631.609 311.05L637.308 315.832L635.515 317.969L629.815 313.187L631.609 311.05Z" fill="#55C4E8"/>
<path d="M635.171 314.039L637.308 315.832L633.124 320.819L630.986 319.026L635.171 314.039Z" fill="#55C4E8"/>
<path d="M798 312.2L795.283 309.838L800.794 303.499L803.511 305.86L798 312.2Z" fill="#55C4E8"/>
<path d="M801.149 308.577L793.904 302.279L796.266 299.562L803.511 305.86L801.149 308.577Z" fill="#55C4E8"/>
<path d="M796.621 304.641L793.904 302.279L799.415 295.94L802.132 298.301L796.621 304.641Z" fill="#55C4E8"/>
<path d="M934 376.2L933.729 373.996L938.871 373.365L939.141 375.569L934 376.2Z" fill="#55C4E8"/>
<path d="M936.938 375.839L936.216 369.963L938.42 369.693L939.141 375.569L936.938 375.839Z" fill="#55C4E8"/>
<path d="M936.487 372.167L936.216 369.963L941.358 369.332L941.628 371.535L936.487 372.167Z" fill="#55C4E8"/>
<path d="M1042 332.2L1042.49 328.724L1050.6 329.864L1050.11 333.34L1042 332.2Z" fill="#55C4E8"/>
<path d="M1046.63 332.851L1047.94 323.582L1051.41 324.071L1050.11 333.34L1046.63 332.851Z" fill="#55C4E8"/>
<path d="M1047.45 327.058L1047.94 323.582L1056.05 324.722L1055.56 328.198L1047.45 327.058Z" fill="#55C4E8"/>
<path d="M1210 317.2L1211.63 314.865L1217.08 318.68L1215.45 321.014L1210 317.2Z" fill="#55C4E8"/>
<path d="M1213.11 319.38L1217.47 313.154L1219.81 314.789L1215.45 321.014L1213.11 319.38Z" fill="#55C4E8"/>
<path d="M1215.84 315.489L1217.47 313.154L1222.92 316.968L1221.28 319.303L1215.84 315.489Z" fill="#55C4E8"/>
<path d="M1370 374.2L1371.16 375.916L1367.15 378.617L1366 376.901L1370 374.2Z" fill="#55C4E8"/>
<path d="M1367.71 375.743L1370.8 380.32L1369.08 381.477L1366 376.901L1367.71 375.743Z" fill="#55C4E8"/>
<path d="M1369.64 378.603L1370.8 380.32L1366.79 383.02L1365.64 381.304L1369.64 378.603Z" fill="#55C4E8"/>
<path d="M20 414.6L21.029 417.767L13.6393 420.168L12.6103 417.001L20 414.6Z" fill="#55C4E8"/>
<path d="M15.7773 415.972L18.5214 424.417L15.3543 425.446L12.6103 417.001L15.7773 415.972Z" fill="#55C4E8"/>
<path d="M17.4923 421.25L18.5214 424.417L11.1317 426.818L10.1026 423.651L17.4923 421.25Z" fill="#55C4E8"/>
<path d="M208 465.6L205.815 467.785L200.717 462.687L202.902 460.502L208 465.6Z" fill="#55C4E8"/>
<path d="M205.087 462.687L199.26 468.513L197.075 466.328L202.902 460.502L205.087 462.687Z" fill="#55C4E8"/>
<path d="M201.445 466.328L199.26 468.513L194.162 463.415L196.347 461.23L201.445 466.328Z" fill="#55C4E8"/>
<path d="M351 426.6L348.145 425.269L351.251 418.607L354.106 419.939L351 426.6Z" fill="#55C4E8"/>
<path d="M352.775 422.793L345.162 419.243L346.493 416.389L354.106 419.939L352.775 422.793Z" fill="#55C4E8"/>
<path d="M348.017 420.575L345.162 419.243L348.268 412.582L351.123 413.913L348.017 420.575Z" fill="#55C4E8"/>
<path d="M456 413.6L458.088 414.956L454.924 419.829L452.836 418.473L456 413.6Z" fill="#55C4E8"/>
<path d="M454.192 416.384L459.761 420.001L458.404 422.089L452.836 418.473L454.192 416.384Z" fill="#55C4E8"/>
<path d="M457.672 418.645L459.761 420.001L456.596 424.873L454.508 423.517L457.672 418.645Z" fill="#55C4E8"/>
<path d="M582 433.6L581.963 435.73L576.994 435.643L577.031 433.513L582 433.6Z" fill="#55C4E8"/>
<path d="M579.16 433.55L579.061 439.229L576.932 439.192L577.031 433.513L579.16 433.55Z" fill="#55C4E8"/>
<path d="M579.098 437.1L579.061 439.229L574.092 439.143L574.129 437.013L579.098 437.1Z" fill="#55C4E8"/>
<path d="M755 499.6L756.102 502.196L750.045 504.767L748.943 502.171L755 499.6Z" fill="#55C4E8"/>
<path d="M751.539 501.069L754.477 507.991L751.881 509.093L748.943 502.171L751.539 501.069Z" fill="#55C4E8"/>
<path d="M753.375 505.395L754.477 507.991L748.42 510.562L747.318 507.966L753.375 505.395Z" fill="#55C4E8"/>
<path d="M988 429.6L989.832 430.267L988.276 434.542L986.444 433.876L988 429.6Z" fill="#55C4E8"/>
<path d="M987.111 432.043L991.997 433.822L991.33 435.654L986.444 433.876L987.111 432.043Z" fill="#55C4E8"/>
<path d="M990.165 433.155L991.997 433.822L990.441 438.097L988.609 437.43L990.165 433.155Z" fill="#55C4E8"/>
<path d="M1053 435.6L1053.43 438.052L1047.71 439.061L1047.28 436.609L1053 435.6Z" fill="#55C4E8"/>
<path d="M1049.73 436.176L1050.88 442.716L1048.43 443.148L1047.28 436.609L1049.73 436.176Z" fill="#55C4E8"/>
<path d="M1050.45 440.263L1050.88 442.716L1045.16 443.724L1044.73 441.272L1050.45 440.263Z" fill="#55C4E8"/>
<path d="M1222 426.6L1218.76 425.42L1221.51 417.855L1224.75 419.035L1222 426.6Z" fill="#55C4E8"/>
<path d="M1223.57 422.277L1214.93 419.131L1216.11 415.889L1224.75 419.035L1223.57 422.277Z" fill="#55C4E8"/>
<path d="M1218.17 420.311L1214.93 419.131L1217.68 411.566L1220.92 412.746L1218.17 420.311Z" fill="#55C4E8"/>
<path d="M1385 497.6L1382.8 497.291L1383.52 492.161L1385.72 492.47L1385 497.6Z" fill="#55C4E8"/>
<path d="M1385.41 494.669L1379.55 493.845L1379.86 491.646L1385.72 492.47L1385.41 494.669Z" fill="#55C4E8"/>
<path d="M1381.75 494.154L1379.55 493.845L1380.27 488.715L1382.47 489.024L1381.75 494.154Z" fill="#55C4E8"/>
<path d="M113 543L112.722 540.737L118.002 540.089L118.28 542.352L113 543Z" fill="#55C4E8"/>
<path d="M116.017 542.629L115.276 536.595L117.539 536.317L118.28 542.352L116.017 542.629Z" fill="#55C4E8"/>
<path d="M115.554 538.858L115.276 536.595L120.557 535.946L120.835 538.209L115.554 538.858Z" fill="#55C4E8"/>
<path d="M164 530L163.101 527.775L168.293 525.677L169.192 527.902L164 530Z" fill="#55C4E8"/>
<path d="M166.967 528.801L164.569 522.867L166.795 521.968L169.192 527.902L166.967 528.801Z" fill="#55C4E8"/>
<path d="M165.469 525.092L164.569 522.867L169.762 520.769L170.661 522.995L165.469 525.092Z" fill="#55C4E8"/>
<path d="M373 517L372.662 514.594L378.277 513.804L378.615 516.211L373 517Z" fill="#55C4E8"/>
<path d="M376.208 516.549L375.307 510.132L377.713 509.794L378.615 516.211L376.208 516.549Z" fill="#55C4E8"/>
<path d="M375.645 512.538L375.307 510.132L380.921 509.343L381.26 511.749L375.645 512.538Z" fill="#55C4E8"/>
<path d="M461 536L463.42 534.872L466.053 540.518L463.633 541.646L461 536Z" fill="#55C4E8"/>
<path d="M462.505 539.226L468.957 536.217L470.086 538.637L463.633 541.646L462.505 539.226Z" fill="#55C4E8"/>
<path d="M466.538 537.346L468.957 536.217L471.59 541.864L469.171 542.992L466.538 537.346Z" fill="#55C4E8"/>
<path d="M587 569L585.951 566.942L590.754 564.495L591.802 566.553L587 569Z" fill="#55C4E8"/>
<path d="M589.744 567.602L586.948 562.113L589.006 561.064L591.802 566.553L589.744 567.602Z" fill="#55C4E8"/>
<path d="M587.996 564.171L586.948 562.113L591.75 559.666L592.799 561.724L587.996 564.171Z" fill="#55C4E8"/>
<path d="M774 524L771.803 524.888L769.731 519.76L771.928 518.873L774 524Z" fill="#55C4E8"/>
<path d="M772.816 521.07L766.956 523.438L766.069 521.24L771.928 518.873L772.816 521.07Z" fill="#55C4E8"/>
<path d="M769.154 522.55L766.956 523.438L764.885 518.31L767.082 517.422L769.154 522.55Z" fill="#55C4E8"/>
<path d="M915 600L915.661 597.693L921.045 599.236L920.383 601.543L915 600Z" fill="#55C4E8"/>
<path d="M918.076 600.882L919.84 594.73L922.147 595.391L920.383 601.543L918.076 600.882Z" fill="#55C4E8"/>
<path d="M919.179 597.037L919.84 594.73L925.223 596.273L924.562 598.581L919.179 597.037Z" fill="#55C4E8"/>
<path d="M1019 515L1017.06 514.37L1018.53 509.842L1020.47 510.473L1019 515Z" fill="#55C4E8"/>
<path d="M1019.84 512.413L1014.67 510.732L1015.3 508.792L1020.47 510.473L1019.84 512.413Z" fill="#55C4E8"/>
<path d="M1016.61 511.362L1014.67 510.732L1016.14 506.205L1018.08 506.835L1016.61 511.362Z" fill="#55C4E8"/>
<path d="M1219 544L1217.66 542.01L1222.3 538.879L1223.64 540.868L1219 544Z" fill="#55C4E8"/>
<path d="M1221.65 542.211L1218.07 536.905L1220.06 535.563L1223.64 540.868L1221.65 542.211Z" fill="#55C4E8"/>
<path d="M1219.42 538.894L1218.07 536.905L1222.72 533.773L1224.06 535.763L1219.42 538.894Z" fill="#55C4E8"/>
<path d="M1435 555L1434.96 552.66L1440.42 552.565L1440.46 554.905L1435 555Z" fill="#55C4E8"/>
<path d="M1438.12 554.945L1438.01 548.706L1440.35 548.666L1440.46 554.905L1438.12 554.945Z" fill="#55C4E8"/>
<path d="M1438.05 551.046L1438.01 548.706L1443.47 548.611L1443.51 550.951L1438.05 551.046Z" fill="#55C4E8"/>
<path d="M54 639.4L51.464 639.133L52.0859 633.216L54.6219 633.483L54 639.4Z" fill="#55C4E8"/>
<path d="M54.3554 636.019L47.5926 635.308L47.8592 632.772L54.6219 633.483L54.3554 636.019Z" fill="#55C4E8"/>
<path d="M50.1287 635.574L47.5926 635.308L48.2146 629.39L50.7506 629.657L50.1287 635.574Z" fill="#55C4E8"/>
<path d="M246 648.4L248.7 646.778L252.486 653.078L249.786 654.7L246 648.4Z" fill="#55C4E8"/>
<path d="M248.163 652L255.363 647.674L256.986 650.374L249.786 654.7L248.163 652Z" fill="#55C4E8"/>
<path d="M252.663 649.296L255.363 647.674L259.149 653.974L256.449 655.596L252.663 649.296Z" fill="#55C4E8"/>
<path d="M411 684.4L411.933 682.091L417.32 684.268L416.387 686.576L411 684.4Z" fill="#55C4E8"/>
<path d="M414.078 685.644L416.566 679.487L418.874 680.42L416.387 686.576L414.078 685.644Z" fill="#55C4E8"/>
<path d="M415.633 681.796L416.566 679.487L421.953 681.664L421.02 683.972L415.633 681.796Z" fill="#55C4E8"/>
<path d="M443 687.4L443.994 689.351L439.441 691.671L438.447 689.72L443 687.4Z" fill="#55C4E8"/>
<path d="M440.398 688.726L443.05 693.929L441.098 694.923L438.447 689.72L440.398 688.726Z" fill="#55C4E8"/>
<path d="M442.055 691.978L443.05 693.929L438.497 696.249L437.502 694.298L442.055 691.978Z" fill="#55C4E8"/>
<path d="M579 705.4L581.303 702.751L587.484 708.124L585.181 710.773L579 705.4Z" fill="#55C4E8"/>
<path d="M582.532 708.47L588.673 701.406L591.322 703.709L585.181 710.773L582.532 708.47Z" fill="#55C4E8"/>
<path d="M586.37 704.055L588.673 701.406L594.854 706.779L592.551 709.428L586.37 704.055Z" fill="#55C4E8"/>
<path d="M736 645.4L733.31 645.165L733.859 638.889L736.549 639.124L736 645.4Z" fill="#55C4E8"/>
<path d="M736.314 641.814L729.141 641.186L729.376 638.496L736.549 639.124L736.314 641.814Z" fill="#55C4E8"/>
<path d="M731.831 641.421L729.141 641.186L729.69 634.91L732.38 635.145L731.831 641.421Z" fill="#55C4E8"/>
<path d="M939 665.4L941.817 664.801L943.214 671.374L940.397 671.973L939 665.4Z" fill="#55C4E8"/>
<path d="M939.798 669.156L947.311 667.559L947.909 670.376L940.397 671.973L939.798 669.156Z" fill="#55C4E8"/>
<path d="M944.493 668.158L947.311 667.559L948.708 674.132L945.891 674.731L944.493 668.158Z" fill="#55C4E8"/>
<path d="M1035 661.4L1036.02 659.633L1040.14 662.013L1039.12 663.78L1035 661.4Z" fill="#55C4E8"/>
<path d="M1037.36 662.76L1040.08 658.049L1041.84 659.069L1039.12 663.78L1037.36 662.76Z" fill="#55C4E8"/>
<path d="M1039.06 659.815L1040.08 658.049L1044.2 660.429L1043.18 662.195L1039.06 659.815Z" fill="#55C4E8"/>
<path d="M1228 694.4L1226.55 697.024L1220.42 693.63L1221.88 691.006L1228 694.4Z" fill="#55C4E8"/>
<path d="M1224.5 692.461L1220.62 699.458L1218 698.003L1221.88 691.006L1224.5 692.461Z" fill="#55C4E8"/>
<path d="M1222.08 696.834L1220.62 699.458L1214.5 696.064L1215.96 693.44L1222.08 696.834Z" fill="#55C4E8"/>
<path d="M1360 698.4L1362.07 698.508L1361.81 703.332L1359.75 703.223L1360 698.4Z" fill="#55C4E8"/>
<path d="M1359.86 701.156L1365.37 701.445L1365.26 703.512L1359.75 703.223L1359.86 701.156Z" fill="#55C4E8"/>
<path d="M1363.3 701.337L1365.37 701.445L1365.12 706.268L1363.05 706.16L1363.3 701.337Z" fill="#55C4E8"/>
<path d="M102 757.8L103.686 760.208L98.0669 764.143L96.3806 761.735L102 757.8Z" fill="#55C4E8"/>
<path d="M98.7889 760.048L103.286 766.47L100.877 768.157L96.3806 761.735L98.7889 760.048Z" fill="#55C4E8"/>
<path d="M101.599 764.062L103.286 766.47L97.6664 770.405L95.98 767.997L101.599 764.062Z" fill="#55C4E8"/>
<path d="M256 737.8L256.481 739.596L252.289 740.72L251.808 738.923L256 737.8Z" fill="#55C4E8"/>
<path d="M253.604 738.442L254.888 743.233L253.092 743.714L251.808 738.923L253.604 738.442Z" fill="#55C4E8"/>
<path d="M254.407 741.436L254.888 743.233L250.696 744.356L250.215 742.559L254.407 741.436Z" fill="#55C4E8"/>
<path d="M347 738.8L344.852 739.026L344.325 734.013L346.473 733.788L347 738.8Z" fill="#55C4E8"/>
<path d="M346.699 735.936L340.97 736.538L340.745 734.39L346.473 733.788L346.699 735.936Z" fill="#55C4E8"/>
<path d="M343.119 736.312L340.97 736.538L340.444 731.525L342.592 731.3L343.119 736.312Z" fill="#55C4E8"/>
<path d="M535 797.8L532.59 796.518L535.58 790.894L537.991 792.176L535 797.8Z" fill="#55C4E8"/>
<path d="M536.709 794.586L530.281 791.168L531.563 788.758L537.991 792.176L536.709 794.586Z" fill="#55C4E8"/>
<path d="M532.691 792.45L530.281 791.168L533.272 785.544L535.682 786.826L532.691 792.45Z" fill="#55C4E8"/>
<path d="M644 734.8L643.658 737.236L637.973 736.437L638.316 734.001L644 734.8Z" fill="#55C4E8"/>
<path d="M640.752 734.343L639.839 740.84L637.403 740.497L638.316 734.001L640.752 734.343Z" fill="#55C4E8"/>
<path d="M640.181 738.404L639.839 740.84L634.155 740.041L634.497 737.605L640.181 738.404Z" fill="#55C4E8"/>
<path d="M819 761.8L817.207 760.765L819.622 756.582L821.415 757.617L819 761.8Z" fill="#55C4E8"/>
<path d="M820.38 759.41L815.6 756.65L816.635 754.857L821.415 757.617L820.38 759.41Z" fill="#55C4E8"/>
<path d="M817.392 757.685L815.6 756.65L818.015 752.467L819.807 753.502L817.392 757.685Z" fill="#55C4E8"/>
<path d="M952 794.8L951.535 797.733L944.691 796.649L945.155 793.716L952 794.8Z" fill="#55C4E8"/>
<path d="M948.089 794.18L946.85 802.003L943.916 801.538L945.155 793.716L948.089 794.18Z" fill="#55C4E8"/>
<path d="M947.314 799.069L946.85 802.003L940.005 800.919L940.47 797.985L947.314 799.069Z" fill="#55C4E8"/>
<path d="M1036 756.8L1037.56 759.74L1030.7 763.388L1029.14 760.448L1036 756.8Z" fill="#55C4E8"/>
<path d="M1032.08 758.884L1036.25 766.725L1033.31 768.288L1029.14 760.448L1032.08 758.884Z" fill="#55C4E8"/>
<path d="M1034.69 763.785L1036.25 766.725L1029.39 770.373L1027.82 767.432L1034.69 763.785Z" fill="#55C4E8"/>
<path d="M1173 809.8L1175.73 807.591L1180.88 813.956L1178.15 816.165L1173 809.8Z" fill="#55C4E8"/>
<path d="M1175.95 813.437L1183.22 807.547L1185.43 810.274L1178.15 816.165L1175.95 813.437Z" fill="#55C4E8"/>
<path d="M1180.49 809.755L1183.22 807.547L1188.37 813.911L1185.65 816.12L1180.49 809.755Z" fill="#55C4E8"/>
<path d="M1377 770.8L1373.94 771.562L1372.17 764.43L1375.22 763.668L1377 770.8Z" fill="#55C4E8"/>
<path d="M1375.98 766.725L1367.83 768.757L1367.07 765.7L1375.22 763.668L1375.98 766.725Z" fill="#55C4E8"/>
<path d="M1370.89 767.995L1367.83 768.757L1366.06 761.625L1369.11 760.863L1370.89 767.995Z" fill="#55C4E8"/>
<path d="M29 828.2L28.7071 824.853L36.5173 824.169L36.8102 827.517L29 828.2Z" fill="#55C4E8"/>
<path d="M33.4629 827.809L32.682 818.884L36.0292 818.591L36.8102 827.517L33.4629 827.809Z" fill="#55C4E8"/>
<path d="M32.9749 822.231L32.682 818.884L40.4922 818.2L40.785 821.547L32.9749 822.231Z" fill="#55C4E8"/>
<path d="M154 872.2L155.909 872.401L155.441 876.856L153.532 876.655L154 872.2Z" fill="#55C4E8"/>
<path d="M153.732 874.746L158.824 875.281L158.624 877.191L153.532 876.655L153.732 874.746Z" fill="#55C4E8"/>
<path d="M156.915 875.08L158.824 875.281L158.356 879.737L156.447 879.536L156.915 875.08Z" fill="#55C4E8"/>
<path d="M382 820.2L378.755 819.451L380.503 811.88L383.748 812.629L382 820.2Z" fill="#55C4E8"/>
<path d="M382.999 815.874L374.346 813.876L375.095 810.632L383.748 812.629L382.999 815.874Z" fill="#55C4E8"/>
<path d="M377.591 814.625L374.346 813.876L376.094 806.305L379.339 807.054L377.591 814.625Z" fill="#55C4E8"/>
<path d="M484 893.2L482.396 894.017L480.489 890.275L482.093 889.458L484 893.2Z" fill="#55C4E8"/>
<path d="M482.91 891.062L478.634 893.241L477.816 891.637L482.093 889.458L482.91 891.062Z" fill="#55C4E8"/>
<path d="M480.237 892.423L478.634 893.241L476.727 889.498L478.331 888.681L480.237 892.423Z" fill="#55C4E8"/>
<path d="M642 833.2L645.493 832.329L647.525 840.479L644.032 841.35L642 833.2Z" fill="#55C4E8"/>
<path d="M643.161 837.857L652.476 835.535L653.347 839.028L644.032 841.35L643.161 837.857Z" fill="#55C4E8"/>
<path d="M648.983 836.406L652.476 835.535L654.508 843.685L651.015 844.556L648.983 836.406Z" fill="#55C4E8"/>
<path d="M776 902.2L777.628 903.217L775.254 907.017L773.626 905.999L776 902.2Z" fill="#55C4E8"/>
<path d="M774.643 904.371L778.985 907.084L777.968 908.712L773.626 905.999L774.643 904.371Z" fill="#55C4E8"/>
<path d="M777.357 906.067L778.985 907.084L776.611 910.883L774.983 909.866L777.357 906.067Z" fill="#55C4E8"/>
<path d="M876 822.2L872.814 822.591L871.901 815.157L875.087 814.766L876 822.2Z" fill="#55C4E8"/>
<path d="M875.478 817.952L866.982 818.995L866.591 815.809L875.087 814.766L875.478 817.952Z" fill="#55C4E8"/>
<path d="M870.168 818.604L866.982 818.995L866.069 811.561L869.255 811.17L870.168 818.604Z" fill="#55C4E8"/>
<path d="M1147 894.2L1146.06 892.09L1150.98 889.897L1151.92 892.008L1147 894.2Z" fill="#55C4E8"/>
<path d="M1149.81 892.947L1147.31 887.32L1149.42 886.38L1151.92 892.008L1149.81 892.947Z" fill="#55C4E8"/>
<path d="M1148.25 889.43L1147.31 887.32L1152.23 885.127L1153.17 887.238L1148.25 889.43Z" fill="#55C4E8"/>
<path d="M1251 821.2L1248.7 821.646L1247.66 816.287L1249.96 815.84L1251 821.2Z" fill="#55C4E8"/>
<path d="M1250.4 818.137L1244.28 819.328L1243.83 817.031L1249.96 815.84L1250.4 818.137Z" fill="#55C4E8"/>
<path d="M1246.58 818.881L1244.28 819.328L1243.24 813.968L1245.53 813.522L1246.58 818.881Z" fill="#55C4E8"/>
<path d="M1299 885.2L1301.59 885.704L1300.42 891.75L1297.82 891.247L1299 885.2Z" fill="#55C4E8"/>
<path d="M1298.33 888.655L1305.24 889.999L1304.74 892.59L1297.82 891.247L1298.33 888.655Z" fill="#55C4E8"/>
<path d="M1302.65 889.495L1305.24 889.999L1304.06 896.045L1301.47 895.542L1302.65 889.495Z" fill="#55C4E8"/>
<path d="M54 936.6L53.8728 934.173L59.535 933.876L59.6622 936.303L54 936.6Z" fill="#55C4E8"/>
<path d="M57.2355 936.43L56.8964 929.959L59.3231 929.832L59.6622 936.303L57.2355 936.43Z" fill="#55C4E8"/>
<path d="M57.0236 932.386L56.8964 929.959L62.5586 929.662L62.6858 932.089L57.0236 932.386Z" fill="#55C4E8"/>
<path d="M176 1010.6L179.149 1011.68L176.619 1019.03L173.47 1017.95L176 1010.6Z" fill="#55C4E8"/>
<path d="M174.554 1014.8L182.951 1017.69L181.867 1020.84L173.47 1017.95L174.554 1014.8Z" fill="#55C4E8"/>
<path d="M179.802 1016.6L182.951 1017.69L180.421 1025.04L177.272 1023.95L179.802 1016.6Z" fill="#55C4E8"/>
<path d="M415 921.6L417.519 920.026L421.191 925.903L418.672 927.477L415 921.6Z" fill="#55C4E8"/>
<path d="M417.098 924.958L423.815 920.761L425.389 923.28L418.672 927.477L417.098 924.958Z" fill="#55C4E8"/>
<path d="M421.296 922.335L423.815 920.761L427.487 926.638L424.969 928.212L421.296 922.335Z" fill="#55C4E8"/>
<path d="M521 993.6L522.748 995.288L518.809 999.367L517.061 997.679L521 993.6Z" fill="#55C4E8"/>
<path d="M518.749 995.931L523.411 1000.43L521.723 1002.18L517.061 997.679L518.749 995.931Z" fill="#55C4E8"/>
<path d="M521.663 998.744L523.411 1000.43L519.472 1004.51L517.724 1002.82L521.663 998.744Z" fill="#55C4E8"/>
<path d="M615 1001.6L613.289 999.063L619.208 995.07L620.919 997.607L615 1001.6Z" fill="#55C4E8"/>
<path d="M618.382 999.318L613.819 992.553L616.356 990.842L620.919 997.607L618.382 999.318Z" fill="#55C4E8"/>
<path d="M615.531 995.09L613.819 992.553L619.739 988.561L621.45 991.098L615.531 995.09Z" fill="#55C4E8"/>
<path d="M758 999.6L760.617 1001.3L756.652 1007.4L754.035 1005.71L758 999.6Z" fill="#55C4E8"/>
<path d="M755.734 1003.09L762.712 1007.62L761.013 1010.24L754.035 1005.71L755.734 1003.09Z" fill="#55C4E8"/>
<path d="M760.095 1005.92L762.712 1007.62L758.747 1013.73L756.13 1012.03L760.095 1005.92Z" fill="#55C4E8"/>
<path d="M864 993.6L861.519 992.697L863.626 986.908L866.107 987.811L864 993.6Z" fill="#55C4E8"/>
<path d="M865.204 990.292L858.588 987.884L859.491 985.404L866.107 987.811L865.204 990.292Z" fill="#55C4E8"/>
<path d="M861.069 988.787L858.588 987.884L860.695 982.096L863.176 982.999L861.069 988.787Z" fill="#55C4E8"/>
<path d="M1077 931.6L1079.98 932.126L1078.76 939.089L1075.77 938.562L1077 931.6Z" fill="#55C4E8"/>
<path d="M1076.3 935.578L1084.26 936.982L1083.73 939.966L1075.77 938.562L1076.3 935.578Z" fill="#55C4E8"/>
<path d="M1081.27 936.455L1084.26 936.982L1083.03 943.944L1080.04 943.418L1081.27 936.455Z" fill="#55C4E8"/>
<path d="M1269 967.6L1270.97 969.573L1266.37 974.176L1264.4 972.203L1269 967.6Z" fill="#55C4E8"/>
<path d="M1266.37 970.23L1271.63 975.491L1269.66 977.464L1264.4 972.203L1266.37 970.23Z" fill="#55C4E8"/>
<path d="M1269.66 973.518L1271.63 975.491L1267.03 980.094L1265.05 978.122L1269.66 973.518Z" fill="#55C4E8"/>
<path d="M1319 967.6L1320.25 970.555L1313.36 973.481L1312.11 970.526L1319 967.6Z" fill="#55C4E8"/>
<path d="M1315.06 969.272L1318.4 977.152L1315.45 978.406L1312.11 970.526L1315.06 969.272Z" fill="#55C4E8"/>
<path d="M1317.15 974.197L1318.4 977.152L1311.51 980.078L1310.26 977.123L1317.15 974.197Z" fill="#55C4E8"/>
</g>
</svg>
